G04 #@! TF.GenerationSoftware,KiCad,Pcbnew,9.0.6*
G04 #@! TF.CreationDate,2026-09-15T02:34:59-07:00*
G04 #@! TF.ProjectId,four-tone-driver,666f7572-2d74-46f6-9e65-2d6472697665,rev?*
G04 #@! TF.SameCoordinates,Original*
G04 #@! TF.FileFunction,Copper,L2,Bot*
G04 #@! TF.FilePolarity,Positive*
%FSLAX46Y46*%
G04 Gerber Fmt 4.6, Leading zero omitted, Abs format (unit mm)*
G04 Created by KiCad (PCBNEW 9.0.6) date 2026-09-15 02:34:59*
%MOMM*%
%LPD*%
G01*
G04 APERTURE LIST*
G04 Aperture macros list*
%AMRoundRect*
0 Rectangle with rounded corners*
0 $1 Rounding radius*
0 $2 $3 $4 $5 $6 $7 $8 $9 X,Y pos of 4 corners*
0 Add a 4 corners polygon primitive as box body*
4,1,4,$2,$3,$4,$5,$6,$7,$8,$9,$2,$3,0*
0 Add four circle primitives for the rounded corners*
1,1,$1+$1,$2,$3*
1,1,$1+$1,$4,$5*
1,1,$1+$1,$6,$7*
1,1,$1+$1,$8,$9*
0 Add four rect primitives between the rounded corners*
20,1,$1+$1,$2,$3,$4,$5,0*
20,1,$1+$1,$4,$5,$6,$7,0*
20,1,$1+$1,$6,$7,$8,$9,0*
20,1,$1+$1,$8,$9,$2,$3,0*%
G04 Aperture macros list end*
G04 #@! TA.AperFunction,ComponentPad*
%ADD10R,1.700000X1.700000*%
G04 #@! TD*
G04 #@! TA.AperFunction,ComponentPad*
%ADD11C,1.700000*%
G04 #@! TD*
G04 #@! TA.AperFunction,ComponentPad*
%ADD12RoundRect,0.250000X-0.600000X-0.750000X0.600000X-0.750000X0.600000X0.750000X-0.600000X0.750000X0*%
G04 #@! TD*
G04 #@! TA.AperFunction,ComponentPad*
%ADD13O,1.700000X2.000000*%
G04 #@! TD*
G04 #@! TA.AperFunction,ComponentPad*
%ADD14RoundRect,0.250000X-1.050000X1.050000X-1.050000X-1.050000X1.050000X-1.050000X1.050000X1.050000X0*%
G04 #@! TD*
G04 #@! TA.AperFunction,ComponentPad*
%ADD15C,2.600000*%
G04 #@! TD*
G04 #@! TA.AperFunction,ViaPad*
%ADD16C,0.600000*%
G04 #@! TD*
G04 #@! TA.AperFunction,Conductor*
%ADD17C,0.800000*%
G04 #@! TD*
G04 APERTURE END LIST*
D10*
X186440000Y-125240000D03*
D11*
X188980000Y-125240000D03*
X191520000Y-125240000D03*
X194060000Y-125240000D03*
X196600000Y-125240000D03*
X199140000Y-125240000D03*
X201680000Y-125240000D03*
X204220000Y-125240000D03*
X206760000Y-125240000D03*
X209300000Y-125240000D03*
X211840000Y-125240000D03*
X214380000Y-125240000D03*
X216920000Y-125240000D03*
X219460000Y-125240000D03*
X222000000Y-125240000D03*
D12*
X209750000Y-162000000D03*
D13*
X212250000Y-162000000D03*
D12*
X133750000Y-162000000D03*
D13*
X136250000Y-162000000D03*
D14*
X107000000Y-112000000D03*
D15*
X107000000Y-117080000D03*
X107000000Y-122160000D03*
X107000000Y-127240000D03*
D12*
X190750000Y-162000000D03*
D13*
X193250000Y-162000000D03*
D12*
X171750000Y-162000000D03*
D13*
X174250000Y-162000000D03*
D10*
X186440000Y-110000000D03*
D11*
X188980000Y-110000000D03*
X191520000Y-110000000D03*
X194060000Y-110000000D03*
X196600000Y-110000000D03*
X199140000Y-110000000D03*
X201680000Y-110000000D03*
X204220000Y-110000000D03*
X206760000Y-110000000D03*
X209300000Y-110000000D03*
X211840000Y-110000000D03*
X214380000Y-110000000D03*
X216920000Y-110000000D03*
X219460000Y-110000000D03*
X222000000Y-110000000D03*
D12*
X114750000Y-162000000D03*
D13*
X117250000Y-162000000D03*
D12*
X152750000Y-162000000D03*
D13*
X155250000Y-162000000D03*
D16*
X205000000Y-105000000D03*
X145000000Y-155000000D03*
X215000000Y-155000000D03*
X185000000Y-145000000D03*
X145000000Y-135000000D03*
X185000000Y-115000000D03*
X195000000Y-115000000D03*
X175000000Y-135000000D03*
X205000000Y-115000000D03*
X115000000Y-165000000D03*
X115000000Y-135000000D03*
X169677245Y-146450500D03*
X165000000Y-165000000D03*
X205000000Y-165000000D03*
X175000000Y-165000000D03*
X215000000Y-115000000D03*
X125000000Y-105000000D03*
X225000000Y-125000000D03*
X185000000Y-135000000D03*
X125000000Y-145000000D03*
X175000000Y-125000000D03*
X175290000Y-146790000D03*
X155000000Y-135000000D03*
X225000000Y-155000000D03*
X105000000Y-155000000D03*
X205000000Y-155000000D03*
X185000000Y-105000000D03*
X155000000Y-105000000D03*
X225000000Y-145000000D03*
X195000000Y-145000000D03*
X205000000Y-145000000D03*
X215000000Y-165000000D03*
X195000000Y-105000000D03*
X195000000Y-135000000D03*
X125000000Y-165000000D03*
X155000000Y-165000000D03*
X135000000Y-155000000D03*
X175000000Y-115000000D03*
X195000000Y-165000000D03*
X175000000Y-105000000D03*
X185000000Y-155000000D03*
X106716700Y-114350500D03*
X135000000Y-115000000D03*
X137210000Y-146940000D03*
X125000000Y-155000000D03*
X145000000Y-165000000D03*
X155000000Y-145000000D03*
X145000000Y-115000000D03*
X165000000Y-155000000D03*
X165000000Y-135000000D03*
X205000000Y-135000000D03*
X135000000Y-165000000D03*
X145000000Y-145000000D03*
X215000000Y-145000000D03*
X115000000Y-105000000D03*
X215000000Y-105000000D03*
X125000000Y-135000000D03*
X185000000Y-165000000D03*
X135000000Y-135000000D03*
X225000000Y-135000000D03*
X155000000Y-115000000D03*
D17*
X133750000Y-162000000D02*
X132095000Y-163655000D01*
X116405000Y-163655000D02*
X114750000Y-162000000D01*
X132095000Y-163655000D02*
X116405000Y-163655000D01*
G04 #@! TA.AperFunction,Conductor*
G36*
X228004418Y-100500816D02*
G01*
X228204561Y-100515130D01*
X228222063Y-100517647D01*
X228413797Y-100559355D01*
X228430755Y-100564334D01*
X228614609Y-100632909D01*
X228630701Y-100640259D01*
X228802904Y-100734288D01*
X228817784Y-100743849D01*
X228974867Y-100861441D01*
X228988237Y-100873027D01*
X229126972Y-101011762D01*
X229138558Y-101025132D01*
X229256146Y-101182210D01*
X229265711Y-101197095D01*
X229359740Y-101369298D01*
X229367090Y-101385390D01*
X229435662Y-101569236D01*
X229440646Y-101586212D01*
X229482351Y-101777931D01*
X229484869Y-101795442D01*
X229499184Y-101995580D01*
X229499500Y-102004427D01*
X229499500Y-167995572D01*
X229499184Y-168004419D01*
X229484869Y-168204557D01*
X229482351Y-168222068D01*
X229440646Y-168413787D01*
X229435662Y-168430763D01*
X229367090Y-168614609D01*
X229359740Y-168630701D01*
X229265711Y-168802904D01*
X229256146Y-168817789D01*
X229138558Y-168974867D01*
X229126972Y-168988237D01*
X228988237Y-169126972D01*
X228974867Y-169138558D01*
X228817789Y-169256146D01*
X228802904Y-169265711D01*
X228630701Y-169359740D01*
X228614609Y-169367090D01*
X228430763Y-169435662D01*
X228413787Y-169440646D01*
X228222068Y-169482351D01*
X228204557Y-169484869D01*
X228023779Y-169497799D01*
X228004417Y-169499184D01*
X227995572Y-169499500D01*
X102004428Y-169499500D01*
X101995582Y-169499184D01*
X101973622Y-169497613D01*
X101795442Y-169484869D01*
X101777931Y-169482351D01*
X101586212Y-169440646D01*
X101569236Y-169435662D01*
X101385390Y-169367090D01*
X101369298Y-169359740D01*
X101197095Y-169265711D01*
X101182210Y-169256146D01*
X101025132Y-169138558D01*
X101011762Y-169126972D01*
X100873027Y-168988237D01*
X100861441Y-168974867D01*
X100743849Y-168817784D01*
X100734288Y-168802904D01*
X100640259Y-168630701D01*
X100632909Y-168614609D01*
X100572091Y-168451551D01*
X100564334Y-168430755D01*
X100559355Y-168413797D01*
X100517647Y-168222063D01*
X100515130Y-168204556D01*
X100500816Y-168004418D01*
X100500500Y-167995572D01*
X100500500Y-165878711D01*
X102149500Y-165878711D01*
X102149500Y-166121288D01*
X102181161Y-166361785D01*
X102243947Y-166596104D01*
X102336773Y-166820205D01*
X102336776Y-166820212D01*
X102458064Y-167030289D01*
X102458066Y-167030292D01*
X102458067Y-167030293D01*
X102605733Y-167222736D01*
X102605739Y-167222743D01*
X102777256Y-167394260D01*
X102777262Y-167394265D01*
X102969711Y-167541936D01*
X103179788Y-167663224D01*
X103403900Y-167756054D01*
X103638211Y-167818838D01*
X103818586Y-167842584D01*
X103878711Y-167850500D01*
X103878712Y-167850500D01*
X104121289Y-167850500D01*
X104169388Y-167844167D01*
X104361789Y-167818838D01*
X104596100Y-167756054D01*
X104820212Y-167663224D01*
X105030289Y-167541936D01*
X105222738Y-167394265D01*
X105394265Y-167222738D01*
X105541936Y-167030289D01*
X105663224Y-166820212D01*
X105756054Y-166596100D01*
X105818838Y-166361789D01*
X105850500Y-166121288D01*
X105850500Y-165878712D01*
X105850500Y-165878711D01*
X224149500Y-165878711D01*
X224149500Y-166121288D01*
X224181161Y-166361785D01*
X224243947Y-166596104D01*
X224336773Y-166820205D01*
X224336776Y-166820212D01*
X224458064Y-167030289D01*
X224458066Y-167030292D01*
X224458067Y-167030293D01*
X224605733Y-167222736D01*
X224605739Y-167222743D01*
X224777256Y-167394260D01*
X224777262Y-167394265D01*
X224969711Y-167541936D01*
X225179788Y-167663224D01*
X225403900Y-167756054D01*
X225638211Y-167818838D01*
X225818586Y-167842584D01*
X225878711Y-167850500D01*
X225878712Y-167850500D01*
X226121289Y-167850500D01*
X226169388Y-167844167D01*
X226361789Y-167818838D01*
X226596100Y-167756054D01*
X226820212Y-167663224D01*
X227030289Y-167541936D01*
X227222738Y-167394265D01*
X227394265Y-167222738D01*
X227541936Y-167030289D01*
X227663224Y-166820212D01*
X227756054Y-166596100D01*
X227818838Y-166361789D01*
X227850500Y-166121288D01*
X227850500Y-165878712D01*
X227818838Y-165638211D01*
X227756054Y-165403900D01*
X227663224Y-165179788D01*
X227541936Y-164969711D01*
X227394265Y-164777262D01*
X227394260Y-164777256D01*
X227222743Y-164605739D01*
X227222736Y-164605733D01*
X227030293Y-164458067D01*
X227030292Y-164458066D01*
X227030289Y-164458064D01*
X226820212Y-164336776D01*
X226813351Y-164333934D01*
X226596104Y-164243947D01*
X226361785Y-164181161D01*
X226121289Y-164149500D01*
X226121288Y-164149500D01*
X225878712Y-164149500D01*
X225878711Y-164149500D01*
X225638214Y-164181161D01*
X225403895Y-164243947D01*
X225179794Y-164336773D01*
X225179785Y-164336777D01*
X224969706Y-164458067D01*
X224777263Y-164605733D01*
X224777256Y-164605739D01*
X224605739Y-164777256D01*
X224605733Y-164777263D01*
X224458067Y-164969706D01*
X224336777Y-165179785D01*
X224336773Y-165179794D01*
X224243947Y-165403895D01*
X224181161Y-165638214D01*
X224149500Y-165878711D01*
X105850500Y-165878711D01*
X105818838Y-165638211D01*
X105756054Y-165403900D01*
X105663224Y-165179788D01*
X105541936Y-164969711D01*
X105394265Y-164777262D01*
X105394260Y-164777256D01*
X105222743Y-164605739D01*
X105222736Y-164605733D01*
X105030293Y-164458067D01*
X105030292Y-164458066D01*
X105030289Y-164458064D01*
X104820212Y-164336776D01*
X104813351Y-164333934D01*
X104596104Y-164243947D01*
X104361785Y-164181161D01*
X104121289Y-164149500D01*
X104121288Y-164149500D01*
X103878712Y-164149500D01*
X103878711Y-164149500D01*
X103638214Y-164181161D01*
X103403895Y-164243947D01*
X103179794Y-164336773D01*
X103179785Y-164336777D01*
X102969706Y-164458067D01*
X102777263Y-164605733D01*
X102777256Y-164605739D01*
X102605739Y-164777256D01*
X102605733Y-164777263D01*
X102458067Y-164969706D01*
X102336777Y-165179785D01*
X102336773Y-165179794D01*
X102243947Y-165403895D01*
X102181161Y-165638214D01*
X102149500Y-165878711D01*
X100500500Y-165878711D01*
X100500500Y-161206898D01*
X113599500Y-161206898D01*
X113599500Y-162793102D01*
X113601872Y-162812853D01*
X113610122Y-162881561D01*
X113610122Y-162881563D01*
X113610123Y-162881564D01*
X113624563Y-162918181D01*
X113665639Y-163022343D01*
X113757077Y-163142922D01*
X113877656Y-163234360D01*
X113877657Y-163234360D01*
X113877658Y-163234361D01*
X114018436Y-163289877D01*
X114106898Y-163300500D01*
X115008481Y-163300500D01*
X115075520Y-163320185D01*
X115096162Y-163336819D01*
X115860886Y-164101542D01*
X115940505Y-164181161D01*
X115958459Y-164199115D01*
X116073182Y-164275771D01*
X116073186Y-164275773D01*
X116073189Y-164275775D01*
X116147866Y-164306707D01*
X116200671Y-164328580D01*
X116227591Y-164333934D01*
X116324630Y-164353237D01*
X116336006Y-164355500D01*
X116336007Y-164355500D01*
X132163996Y-164355500D01*
X132255040Y-164337389D01*
X132299328Y-164328580D01*
X132363069Y-164302177D01*
X132426807Y-164275777D01*
X132426808Y-164275776D01*
X132426811Y-164275775D01*
X132541543Y-164199114D01*
X133403837Y-163336818D01*
X133465160Y-163303334D01*
X133491518Y-163300500D01*
X134393097Y-163300500D01*
X134393102Y-163300500D01*
X134481564Y-163289877D01*
X134622342Y-163234361D01*
X134742922Y-163142922D01*
X134834361Y-163022342D01*
X134889877Y-162881564D01*
X134900500Y-162793102D01*
X134900500Y-162502669D01*
X134920185Y-162435630D01*
X134972989Y-162389875D01*
X135042147Y-162379931D01*
X135105703Y-162408956D01*
X135142431Y-162464351D01*
X135183787Y-162591636D01*
X135183788Y-162591639D01*
X135266006Y-162752997D01*
X135372441Y-162899494D01*
X135372445Y-162899499D01*
X135500500Y-163027554D01*
X135500505Y-163027558D01*
X135628287Y-163120396D01*
X135647006Y-163133996D01*
X135752484Y-163187740D01*
X135808360Y-163216211D01*
X135808363Y-163216212D01*
X135894476Y-163244191D01*
X135980591Y-163272171D01*
X136063429Y-163285291D01*
X136159449Y-163300500D01*
X136159454Y-163300500D01*
X136340551Y-163300500D01*
X136427259Y-163286765D01*
X136519409Y-163272171D01*
X136691639Y-163216211D01*
X136852994Y-163133996D01*
X136999501Y-163027553D01*
X137127553Y-162899501D01*
X137233996Y-162752994D01*
X137316211Y-162591639D01*
X137372171Y-162419409D01*
X137386765Y-162327259D01*
X137400500Y-162240551D01*
X137400500Y-161759448D01*
X137376608Y-161608608D01*
X137372171Y-161580591D01*
X137316211Y-161408361D01*
X137233996Y-161247006D01*
X137233995Y-161247004D01*
X137204856Y-161206898D01*
X151599500Y-161206898D01*
X151599500Y-162793102D01*
X151601872Y-162812853D01*
X151610122Y-162881561D01*
X151610122Y-162881563D01*
X151610123Y-162881564D01*
X151624563Y-162918181D01*
X151665639Y-163022343D01*
X151757077Y-163142922D01*
X151877656Y-163234360D01*
X151877657Y-163234360D01*
X151877658Y-163234361D01*
X152018436Y-163289877D01*
X152106898Y-163300500D01*
X152106903Y-163300500D01*
X153393097Y-163300500D01*
X153393102Y-163300500D01*
X153481564Y-163289877D01*
X153622342Y-163234361D01*
X153742922Y-163142922D01*
X153834361Y-163022342D01*
X153889877Y-162881564D01*
X153900500Y-162793102D01*
X153900500Y-162502669D01*
X153920185Y-162435630D01*
X153972989Y-162389875D01*
X154042147Y-162379931D01*
X154105703Y-162408956D01*
X154142431Y-162464351D01*
X154183787Y-162591636D01*
X154183788Y-162591639D01*
X154266006Y-162752997D01*
X154372441Y-162899494D01*
X154372445Y-162899499D01*
X154500500Y-163027554D01*
X154500505Y-163027558D01*
X154628287Y-163120396D01*
X154647006Y-163133996D01*
X154752484Y-163187740D01*
X154808360Y-163216211D01*
X154808363Y-163216212D01*
X154894476Y-163244191D01*
X154980591Y-163272171D01*
X155063429Y-163285291D01*
X155159449Y-163300500D01*
X155159454Y-163300500D01*
X155340551Y-163300500D01*
X155427259Y-163286765D01*
X155519409Y-163272171D01*
X155691639Y-163216211D01*
X155852994Y-163133996D01*
X155999501Y-163027553D01*
X156127553Y-162899501D01*
X156233996Y-162752994D01*
X156316211Y-162591639D01*
X156372171Y-162419409D01*
X156386765Y-162327259D01*
X156400500Y-162240551D01*
X156400500Y-161759448D01*
X156376608Y-161608608D01*
X156372171Y-161580591D01*
X156316211Y-161408361D01*
X156233996Y-161247006D01*
X156233995Y-161247004D01*
X156204856Y-161206898D01*
X170599500Y-161206898D01*
X170599500Y-162793102D01*
X170601872Y-162812853D01*
X170610122Y-162881561D01*
X170610122Y-162881563D01*
X170610123Y-162881564D01*
X170624563Y-162918181D01*
X170665639Y-163022343D01*
X170757077Y-163142922D01*
X170877656Y-163234360D01*
X170877657Y-163234360D01*
X170877658Y-163234361D01*
X171018436Y-163289877D01*
X171106898Y-163300500D01*
X171106903Y-163300500D01*
X172393097Y-163300500D01*
X172393102Y-163300500D01*
X172481564Y-163289877D01*
X172622342Y-163234361D01*
X172742922Y-163142922D01*
X172834361Y-163022342D01*
X172889877Y-162881564D01*
X172900500Y-162793102D01*
X172900500Y-162502669D01*
X172920185Y-162435630D01*
X172972989Y-162389875D01*
X173042147Y-162379931D01*
X173105703Y-162408956D01*
X173142431Y-162464351D01*
X173183787Y-162591636D01*
X173183788Y-162591639D01*
X173266006Y-162752997D01*
X173372441Y-162899494D01*
X173372445Y-162899499D01*
X173500500Y-163027554D01*
X173500505Y-163027558D01*
X173628287Y-163120396D01*
X173647006Y-163133996D01*
X173752484Y-163187740D01*
X173808360Y-163216211D01*
X173808363Y-163216212D01*
X173894476Y-163244191D01*
X173980591Y-163272171D01*
X174063429Y-163285291D01*
X174159449Y-163300500D01*
X174159454Y-163300500D01*
X174340551Y-163300500D01*
X174427259Y-163286765D01*
X174519409Y-163272171D01*
X174691639Y-163216211D01*
X174852994Y-163133996D01*
X174999501Y-163027553D01*
X175127553Y-162899501D01*
X175233996Y-162752994D01*
X175316211Y-162591639D01*
X175372171Y-162419409D01*
X175386765Y-162327259D01*
X175400500Y-162240551D01*
X175400500Y-161759448D01*
X175376608Y-161608608D01*
X175372171Y-161580591D01*
X175316211Y-161408361D01*
X175233996Y-161247006D01*
X175233995Y-161247004D01*
X175204856Y-161206898D01*
X189599500Y-161206898D01*
X189599500Y-162793102D01*
X189601872Y-162812853D01*
X189610122Y-162881561D01*
X189610122Y-162881563D01*
X189610123Y-162881564D01*
X189624563Y-162918181D01*
X189665639Y-163022343D01*
X189757077Y-163142922D01*
X189877656Y-163234360D01*
X189877657Y-163234360D01*
X189877658Y-163234361D01*
X190018436Y-163289877D01*
X190106898Y-163300500D01*
X190106903Y-163300500D01*
X191393097Y-163300500D01*
X191393102Y-163300500D01*
X191481564Y-163289877D01*
X191622342Y-163234361D01*
X191742922Y-163142922D01*
X191834361Y-163022342D01*
X191889877Y-162881564D01*
X191900500Y-162793102D01*
X191900500Y-162502669D01*
X191920185Y-162435630D01*
X191972989Y-162389875D01*
X192042147Y-162379931D01*
X192105703Y-162408956D01*
X192142431Y-162464351D01*
X192183787Y-162591636D01*
X192183788Y-162591639D01*
X192266006Y-162752997D01*
X192372441Y-162899494D01*
X192372445Y-162899499D01*
X192500500Y-163027554D01*
X192500505Y-163027558D01*
X192628287Y-163120396D01*
X192647006Y-163133996D01*
X192752484Y-163187740D01*
X192808360Y-163216211D01*
X192808363Y-163216212D01*
X192894476Y-163244191D01*
X192980591Y-163272171D01*
X193063429Y-163285291D01*
X193159449Y-163300500D01*
X193159454Y-163300500D01*
X193340551Y-163300500D01*
X193427259Y-163286765D01*
X193519409Y-163272171D01*
X193691639Y-163216211D01*
X193852994Y-163133996D01*
X193999501Y-163027553D01*
X194127553Y-162899501D01*
X194233996Y-162752994D01*
X194316211Y-162591639D01*
X194372171Y-162419409D01*
X194386765Y-162327259D01*
X194400500Y-162240551D01*
X194400500Y-161759448D01*
X194376608Y-161608608D01*
X194372171Y-161580591D01*
X194316211Y-161408361D01*
X194233996Y-161247006D01*
X194233995Y-161247004D01*
X194204856Y-161206898D01*
X208599500Y-161206898D01*
X208599500Y-162793102D01*
X208601872Y-162812853D01*
X208610122Y-162881561D01*
X208610122Y-162881563D01*
X208610123Y-162881564D01*
X208624563Y-162918181D01*
X208665639Y-163022343D01*
X208757077Y-163142922D01*
X208877656Y-163234360D01*
X208877657Y-163234360D01*
X208877658Y-163234361D01*
X209018436Y-163289877D01*
X209106898Y-163300500D01*
X209106903Y-163300500D01*
X210393097Y-163300500D01*
X210393102Y-163300500D01*
X210481564Y-163289877D01*
X210622342Y-163234361D01*
X210742922Y-163142922D01*
X210834361Y-163022342D01*
X210889877Y-162881564D01*
X210900500Y-162793102D01*
X210900500Y-162502669D01*
X210920185Y-162435630D01*
X210972989Y-162389875D01*
X211042147Y-162379931D01*
X211105703Y-162408956D01*
X211142431Y-162464351D01*
X211183787Y-162591636D01*
X211183788Y-162591639D01*
X211266006Y-162752997D01*
X211372441Y-162899494D01*
X211372445Y-162899499D01*
X211500500Y-163027554D01*
X211500505Y-163027558D01*
X211628287Y-163120396D01*
X211647006Y-163133996D01*
X211752484Y-163187740D01*
X211808360Y-163216211D01*
X211808363Y-163216212D01*
X211894476Y-163244191D01*
X211980591Y-163272171D01*
X212063429Y-163285291D01*
X212159449Y-163300500D01*
X212159454Y-163300500D01*
X212340551Y-163300500D01*
X212427259Y-163286765D01*
X212519409Y-163272171D01*
X212691639Y-163216211D01*
X212852994Y-163133996D01*
X212999501Y-163027553D01*
X213127553Y-162899501D01*
X213233996Y-162752994D01*
X213316211Y-162591639D01*
X213372171Y-162419409D01*
X213386765Y-162327259D01*
X213400500Y-162240551D01*
X213400500Y-161759448D01*
X213376608Y-161608608D01*
X213372171Y-161580591D01*
X213316211Y-161408361D01*
X213316211Y-161408360D01*
X213240354Y-161259485D01*
X213233996Y-161247006D01*
X213204856Y-161206898D01*
X213127558Y-161100505D01*
X213127554Y-161100500D01*
X212999499Y-160972445D01*
X212999494Y-160972441D01*
X212852997Y-160866006D01*
X212852996Y-160866005D01*
X212852994Y-160866004D01*
X212801300Y-160839664D01*
X212691639Y-160783788D01*
X212691636Y-160783787D01*
X212519410Y-160727829D01*
X212340551Y-160699500D01*
X212340546Y-160699500D01*
X212159454Y-160699500D01*
X212159449Y-160699500D01*
X211980589Y-160727829D01*
X211808363Y-160783787D01*
X211808360Y-160783788D01*
X211647002Y-160866006D01*
X211500505Y-160972441D01*
X211500500Y-160972445D01*
X211372445Y-161100500D01*
X211372441Y-161100505D01*
X211266006Y-161247002D01*
X211183788Y-161408360D01*
X211183787Y-161408363D01*
X211142431Y-161535648D01*
X211102994Y-161593323D01*
X211038635Y-161620522D01*
X210969789Y-161608608D01*
X210918313Y-161561364D01*
X210900500Y-161497330D01*
X210900500Y-161206903D01*
X210900500Y-161206898D01*
X210889877Y-161118436D01*
X210834361Y-160977658D01*
X210834360Y-160977657D01*
X210834360Y-160977656D01*
X210742922Y-160857077D01*
X210622343Y-160765639D01*
X210481561Y-160710122D01*
X210435926Y-160704642D01*
X210393102Y-160699500D01*
X209106898Y-160699500D01*
X209067853Y-160704188D01*
X209018438Y-160710122D01*
X208877656Y-160765639D01*
X208757077Y-160857077D01*
X208665639Y-160977656D01*
X208610122Y-161118438D01*
X208604188Y-161167853D01*
X208599500Y-161206898D01*
X194204856Y-161206898D01*
X194127558Y-161100505D01*
X194127554Y-161100500D01*
X193999499Y-160972445D01*
X193999494Y-160972441D01*
X193852997Y-160866006D01*
X193852996Y-160866005D01*
X193852994Y-160866004D01*
X193801300Y-160839664D01*
X193691639Y-160783788D01*
X193691636Y-160783787D01*
X193519410Y-160727829D01*
X193340551Y-160699500D01*
X193340546Y-160699500D01*
X193159454Y-160699500D01*
X193159449Y-160699500D01*
X192980589Y-160727829D01*
X192808363Y-160783787D01*
X192808360Y-160783788D01*
X192647002Y-160866006D01*
X192500505Y-160972441D01*
X192500500Y-160972445D01*
X192372445Y-161100500D01*
X192372441Y-161100505D01*
X192266006Y-161247002D01*
X192183788Y-161408360D01*
X192183787Y-161408363D01*
X192142431Y-161535648D01*
X192102994Y-161593323D01*
X192038635Y-161620522D01*
X191969789Y-161608608D01*
X191918313Y-161561364D01*
X191900500Y-161497330D01*
X191900500Y-161206903D01*
X191900500Y-161206898D01*
X191889877Y-161118436D01*
X191834361Y-160977658D01*
X191834360Y-160977657D01*
X191834360Y-160977656D01*
X191742922Y-160857077D01*
X191622343Y-160765639D01*
X191481561Y-160710122D01*
X191435926Y-160704642D01*
X191393102Y-160699500D01*
X190106898Y-160699500D01*
X190067853Y-160704188D01*
X190018438Y-160710122D01*
X189877656Y-160765639D01*
X189757077Y-160857077D01*
X189665639Y-160977656D01*
X189610122Y-161118438D01*
X189604188Y-161167853D01*
X189599500Y-161206898D01*
X175204856Y-161206898D01*
X175127558Y-161100505D01*
X175127554Y-161100500D01*
X174999499Y-160972445D01*
X174999494Y-160972441D01*
X174852997Y-160866006D01*
X174852996Y-160866005D01*
X174852994Y-160866004D01*
X174801300Y-160839664D01*
X174691639Y-160783788D01*
X174691636Y-160783787D01*
X174519410Y-160727829D01*
X174340551Y-160699500D01*
X174340546Y-160699500D01*
X174159454Y-160699500D01*
X174159449Y-160699500D01*
X173980589Y-160727829D01*
X173808363Y-160783787D01*
X173808360Y-160783788D01*
X173647002Y-160866006D01*
X173500505Y-160972441D01*
X173500500Y-160972445D01*
X173372445Y-161100500D01*
X173372441Y-161100505D01*
X173266006Y-161247002D01*
X173183788Y-161408360D01*
X173183787Y-161408363D01*
X173142431Y-161535648D01*
X173102994Y-161593323D01*
X173038635Y-161620522D01*
X172969789Y-161608608D01*
X172918313Y-161561364D01*
X172900500Y-161497330D01*
X172900500Y-161206903D01*
X172900500Y-161206898D01*
X172889877Y-161118436D01*
X172834361Y-160977658D01*
X172834360Y-160977657D01*
X172834360Y-160977656D01*
X172742922Y-160857077D01*
X172622343Y-160765639D01*
X172481561Y-160710122D01*
X172435926Y-160704642D01*
X172393102Y-160699500D01*
X171106898Y-160699500D01*
X171067853Y-160704188D01*
X171018438Y-160710122D01*
X170877656Y-160765639D01*
X170757077Y-160857077D01*
X170665639Y-160977656D01*
X170610122Y-161118438D01*
X170604188Y-161167853D01*
X170599500Y-161206898D01*
X156204856Y-161206898D01*
X156127558Y-161100505D01*
X156127554Y-161100500D01*
X155999499Y-160972445D01*
X155999494Y-160972441D01*
X155852997Y-160866006D01*
X155852996Y-160866005D01*
X155852994Y-160866004D01*
X155801300Y-160839664D01*
X155691639Y-160783788D01*
X155691636Y-160783787D01*
X155519410Y-160727829D01*
X155340551Y-160699500D01*
X155340546Y-160699500D01*
X155159454Y-160699500D01*
X155159449Y-160699500D01*
X154980589Y-160727829D01*
X154808363Y-160783787D01*
X154808360Y-160783788D01*
X154647002Y-160866006D01*
X154500505Y-160972441D01*
X154500500Y-160972445D01*
X154372445Y-161100500D01*
X154372441Y-161100505D01*
X154266006Y-161247002D01*
X154183788Y-161408360D01*
X154183787Y-161408363D01*
X154142431Y-161535648D01*
X154102994Y-161593323D01*
X154038635Y-161620522D01*
X153969789Y-161608608D01*
X153918313Y-161561364D01*
X153900500Y-161497330D01*
X153900500Y-161206903D01*
X153900500Y-161206898D01*
X153889877Y-161118436D01*
X153834361Y-160977658D01*
X153834360Y-160977657D01*
X153834360Y-160977656D01*
X153742922Y-160857077D01*
X153622343Y-160765639D01*
X153481561Y-160710122D01*
X153435926Y-160704642D01*
X153393102Y-160699500D01*
X152106898Y-160699500D01*
X152067853Y-160704188D01*
X152018438Y-160710122D01*
X151877656Y-160765639D01*
X151757077Y-160857077D01*
X151665639Y-160977656D01*
X151610122Y-161118438D01*
X151604188Y-161167853D01*
X151599500Y-161206898D01*
X137204856Y-161206898D01*
X137127558Y-161100505D01*
X137127554Y-161100500D01*
X136999499Y-160972445D01*
X136999494Y-160972441D01*
X136852997Y-160866006D01*
X136852996Y-160866005D01*
X136852994Y-160866004D01*
X136801300Y-160839664D01*
X136691639Y-160783788D01*
X136691636Y-160783787D01*
X136519410Y-160727829D01*
X136340551Y-160699500D01*
X136340546Y-160699500D01*
X136159454Y-160699500D01*
X136159449Y-160699500D01*
X135980589Y-160727829D01*
X135808363Y-160783787D01*
X135808360Y-160783788D01*
X135647002Y-160866006D01*
X135500505Y-160972441D01*
X135500500Y-160972445D01*
X135372445Y-161100500D01*
X135372441Y-161100505D01*
X135266006Y-161247002D01*
X135183788Y-161408360D01*
X135183787Y-161408363D01*
X135142431Y-161535648D01*
X135102994Y-161593323D01*
X135038635Y-161620522D01*
X134969789Y-161608608D01*
X134918313Y-161561364D01*
X134900500Y-161497330D01*
X134900500Y-161206903D01*
X134900500Y-161206898D01*
X134889877Y-161118436D01*
X134834361Y-160977658D01*
X134834360Y-160977657D01*
X134834360Y-160977656D01*
X134742922Y-160857077D01*
X134622343Y-160765639D01*
X134481561Y-160710122D01*
X134435926Y-160704642D01*
X134393102Y-160699500D01*
X133106898Y-160699500D01*
X133067853Y-160704188D01*
X133018438Y-160710122D01*
X132877656Y-160765639D01*
X132757077Y-160857077D01*
X132665639Y-160977656D01*
X132610122Y-161118438D01*
X132604188Y-161167853D01*
X132599500Y-161206898D01*
X132599500Y-161206903D01*
X132599500Y-162108481D01*
X132579815Y-162175520D01*
X132563181Y-162196162D01*
X131841162Y-162918181D01*
X131779839Y-162951666D01*
X131753481Y-162954500D01*
X118330957Y-162954500D01*
X118263918Y-162934815D01*
X118218163Y-162882011D01*
X118208219Y-162812853D01*
X118230641Y-162757612D01*
X118231383Y-162756589D01*
X118233996Y-162752994D01*
X118316211Y-162591639D01*
X118372171Y-162419409D01*
X118386765Y-162327259D01*
X118400500Y-162240551D01*
X118400500Y-161759448D01*
X118376608Y-161608608D01*
X118372171Y-161580591D01*
X118316211Y-161408361D01*
X118316211Y-161408360D01*
X118240354Y-161259485D01*
X118233996Y-161247006D01*
X118204856Y-161206898D01*
X118127558Y-161100505D01*
X118127554Y-161100500D01*
X117999499Y-160972445D01*
X117999494Y-160972441D01*
X117852997Y-160866006D01*
X117852996Y-160866005D01*
X117852994Y-160866004D01*
X117801300Y-160839664D01*
X117691639Y-160783788D01*
X117691636Y-160783787D01*
X117519410Y-160727829D01*
X117340551Y-160699500D01*
X117340546Y-160699500D01*
X117159454Y-160699500D01*
X117159449Y-160699500D01*
X116980589Y-160727829D01*
X116808363Y-160783787D01*
X116808360Y-160783788D01*
X116647002Y-160866006D01*
X116500505Y-160972441D01*
X116500500Y-160972445D01*
X116372445Y-161100500D01*
X116372441Y-161100505D01*
X116266006Y-161247002D01*
X116183788Y-161408360D01*
X116183787Y-161408363D01*
X116142431Y-161535648D01*
X116102994Y-161593323D01*
X116038635Y-161620522D01*
X115969789Y-161608608D01*
X115918313Y-161561364D01*
X115900500Y-161497330D01*
X115900500Y-161206903D01*
X115900500Y-161206898D01*
X115889877Y-161118436D01*
X115834361Y-160977658D01*
X115834360Y-160977657D01*
X115834360Y-160977656D01*
X115742922Y-160857077D01*
X115622343Y-160765639D01*
X115481561Y-160710122D01*
X115435926Y-160704642D01*
X115393102Y-160699500D01*
X114106898Y-160699500D01*
X114067853Y-160704188D01*
X114018438Y-160710122D01*
X113877656Y-160765639D01*
X113757077Y-160857077D01*
X113665639Y-160977656D01*
X113610122Y-161118438D01*
X113604188Y-161167853D01*
X113599500Y-161206898D01*
X100500500Y-161206898D01*
X100500500Y-127122014D01*
X105200000Y-127122014D01*
X105200000Y-127357985D01*
X105230799Y-127591914D01*
X105291870Y-127819837D01*
X105382160Y-128037819D01*
X105382165Y-128037828D01*
X105500144Y-128242171D01*
X105500145Y-128242172D01*
X105562721Y-128323723D01*
X106398958Y-127487487D01*
X106423978Y-127547890D01*
X106495112Y-127654351D01*
X106585649Y-127744888D01*
X106692110Y-127816022D01*
X106752511Y-127841041D01*
X105916275Y-128677277D01*
X105997827Y-128739854D01*
X105997828Y-128739855D01*
X106202171Y-128857834D01*
X106202180Y-128857839D01*
X106420163Y-128948129D01*
X106420161Y-128948129D01*
X106648085Y-129009200D01*
X106882014Y-129039999D01*
X106882029Y-129040000D01*
X107117971Y-129040000D01*
X107117985Y-129039999D01*
X107351914Y-129009200D01*
X107579837Y-128948129D01*
X107797819Y-128857839D01*
X107797828Y-128857834D01*
X108002181Y-128739850D01*
X108083723Y-128677279D01*
X108083723Y-128677276D01*
X107247487Y-127841041D01*
X107307890Y-127816022D01*
X107414351Y-127744888D01*
X107504888Y-127654351D01*
X107576022Y-127547890D01*
X107601041Y-127487487D01*
X108437276Y-128323723D01*
X108437279Y-128323723D01*
X108499850Y-128242181D01*
X108617834Y-128037828D01*
X108617839Y-128037819D01*
X108708129Y-127819837D01*
X108769200Y-127591914D01*
X108799999Y-127357985D01*
X108800000Y-127357971D01*
X108800000Y-127122028D01*
X108799999Y-127122014D01*
X108769200Y-126888085D01*
X108708129Y-126660162D01*
X108617839Y-126442180D01*
X108617834Y-126442171D01*
X108499855Y-126237828D01*
X108499854Y-126237827D01*
X108437277Y-126156275D01*
X107601041Y-126992511D01*
X107576022Y-126932110D01*
X107504888Y-126825649D01*
X107414351Y-126735112D01*
X107307890Y-126663978D01*
X107247488Y-126638958D01*
X108083723Y-125802721D01*
X108002172Y-125740145D01*
X108002171Y-125740144D01*
X107797828Y-125622165D01*
X107797819Y-125622160D01*
X107579836Y-125531870D01*
X107579838Y-125531870D01*
X107351914Y-125470799D01*
X107117985Y-125440000D01*
X106882014Y-125440000D01*
X106648085Y-125470799D01*
X106420162Y-125531870D01*
X106202180Y-125622160D01*
X106202171Y-125622165D01*
X105997828Y-125740144D01*
X105997818Y-125740150D01*
X105916275Y-125802720D01*
X105916275Y-125802721D01*
X106752512Y-126638958D01*
X106692110Y-126663978D01*
X106585649Y-126735112D01*
X106495112Y-126825649D01*
X106423978Y-126932110D01*
X106398958Y-126992512D01*
X105562721Y-126156275D01*
X105562720Y-126156275D01*
X105500150Y-126237818D01*
X105500144Y-126237828D01*
X105382165Y-126442171D01*
X105382160Y-126442180D01*
X105291870Y-126660162D01*
X105230799Y-126888085D01*
X105200000Y-127122014D01*
X100500500Y-127122014D01*
X100500500Y-124345131D01*
X185289500Y-124345131D01*
X185289500Y-126134856D01*
X185289502Y-126134882D01*
X185292413Y-126159987D01*
X185292415Y-126159991D01*
X185337793Y-126262764D01*
X185337794Y-126262765D01*
X185417235Y-126342206D01*
X185520009Y-126387585D01*
X185545135Y-126390500D01*
X187334864Y-126390499D01*
X187334879Y-126390497D01*
X187334882Y-126390497D01*
X187359987Y-126387586D01*
X187359988Y-126387585D01*
X187359991Y-126387585D01*
X187462765Y-126342206D01*
X187542206Y-126262765D01*
X187587585Y-126159991D01*
X187590500Y-126134865D01*
X187590499Y-125397125D01*
X187610183Y-125330089D01*
X187662987Y-125284334D01*
X187732146Y-125274390D01*
X187795702Y-125303415D01*
X187833476Y-125362193D01*
X187836972Y-125377729D01*
X187857829Y-125509410D01*
X187913787Y-125681636D01*
X187913788Y-125681639D01*
X187996006Y-125842997D01*
X188102441Y-125989494D01*
X188102445Y-125989499D01*
X188230500Y-126117554D01*
X188230505Y-126117558D01*
X188354565Y-126207692D01*
X188377006Y-126223996D01*
X188453094Y-126262765D01*
X188538360Y-126306211D01*
X188538363Y-126306212D01*
X188624476Y-126334191D01*
X188710591Y-126362171D01*
X188793429Y-126375291D01*
X188889449Y-126390500D01*
X188889454Y-126390500D01*
X189070551Y-126390500D01*
X189157259Y-126376765D01*
X189249409Y-126362171D01*
X189421639Y-126306211D01*
X189582994Y-126223996D01*
X189729501Y-126117553D01*
X189857553Y-125989501D01*
X189963996Y-125842994D01*
X190046211Y-125681639D01*
X190102171Y-125509409D01*
X190116422Y-125419425D01*
X190127527Y-125349321D01*
X190157456Y-125286186D01*
X190216768Y-125249255D01*
X190286630Y-125250253D01*
X190344863Y-125288863D01*
X190372473Y-125349321D01*
X190397829Y-125509410D01*
X190453787Y-125681636D01*
X190453788Y-125681639D01*
X190536006Y-125842997D01*
X190642441Y-125989494D01*
X190642445Y-125989499D01*
X190770500Y-126117554D01*
X190770505Y-126117558D01*
X190894565Y-126207692D01*
X190917006Y-126223996D01*
X190993094Y-126262765D01*
X191078360Y-126306211D01*
X191078363Y-126306212D01*
X191164476Y-126334191D01*
X191250591Y-126362171D01*
X191333429Y-126375291D01*
X191429449Y-126390500D01*
X191429454Y-126390500D01*
X191610551Y-126390500D01*
X191697259Y-126376765D01*
X191789409Y-126362171D01*
X191961639Y-126306211D01*
X192122994Y-126223996D01*
X192211095Y-126159987D01*
X192269495Y-126117558D01*
X192269497Y-126117555D01*
X192269501Y-126117553D01*
X192397553Y-125989501D01*
X192503996Y-125842994D01*
X192571090Y-125711314D01*
X192619065Y-125660519D01*
X192686886Y-125643724D01*
X192753021Y-125666262D01*
X192796472Y-125720977D01*
X192799506Y-125729292D01*
X192808904Y-125758217D01*
X192905375Y-125947550D01*
X192944728Y-126001716D01*
X193577037Y-125369408D01*
X193594075Y-125432993D01*
X193659901Y-125547007D01*
X193752993Y-125640099D01*
X193867007Y-125705925D01*
X193930590Y-125722962D01*
X193298282Y-126355269D01*
X193298282Y-126355270D01*
X193352449Y-126394624D01*
X193541782Y-126491095D01*
X193743870Y-126556757D01*
X193953754Y-126590000D01*
X194166246Y-126590000D01*
X194376127Y-126556757D01*
X194376130Y-126556757D01*
X194578217Y-126491095D01*
X194767554Y-126394622D01*
X194821716Y-126355270D01*
X194821717Y-126355270D01*
X194189408Y-125722962D01*
X194252993Y-125705925D01*
X194367007Y-125640099D01*
X194460099Y-125547007D01*
X194525925Y-125432993D01*
X194542962Y-125369408D01*
X195175270Y-126001717D01*
X195175270Y-126001716D01*
X195214622Y-125947554D01*
X195311095Y-125758217D01*
X195320492Y-125729295D01*
X195359928Y-125671618D01*
X195424286Y-125644419D01*
X195493133Y-125656331D01*
X195544610Y-125703574D01*
X195548908Y-125711314D01*
X195616004Y-125842995D01*
X195722441Y-125989494D01*
X195722445Y-125989499D01*
X195850500Y-126117554D01*
X195850505Y-126117558D01*
X195974565Y-126207692D01*
X195997006Y-126223996D01*
X196073094Y-126262765D01*
X196158360Y-126306211D01*
X196158363Y-126306212D01*
X196244476Y-126334191D01*
X196330591Y-126362171D01*
X196413429Y-126375291D01*
X196509449Y-126390500D01*
X196509454Y-126390500D01*
X196690551Y-126390500D01*
X196777259Y-126376765D01*
X196869409Y-126362171D01*
X197041639Y-126306211D01*
X197202994Y-126223996D01*
X197349501Y-126117553D01*
X197477553Y-125989501D01*
X197583996Y-125842994D01*
X197666211Y-125681639D01*
X197722171Y-125509409D01*
X197736422Y-125419425D01*
X197747527Y-125349321D01*
X197777456Y-125286186D01*
X197836768Y-125249255D01*
X197906630Y-125250253D01*
X197964863Y-125288863D01*
X197992473Y-125349321D01*
X198017829Y-125509410D01*
X198073787Y-125681636D01*
X198073788Y-125681639D01*
X198156006Y-125842997D01*
X198262441Y-125989494D01*
X198262445Y-125989499D01*
X198390500Y-126117554D01*
X198390505Y-126117558D01*
X198514565Y-126207692D01*
X198537006Y-126223996D01*
X198613094Y-126262765D01*
X198698360Y-126306211D01*
X198698363Y-126306212D01*
X198784476Y-126334191D01*
X198870591Y-126362171D01*
X198953429Y-126375291D01*
X199049449Y-126390500D01*
X199049454Y-126390500D01*
X199230551Y-126390500D01*
X199317259Y-126376765D01*
X199409409Y-126362171D01*
X199581639Y-126306211D01*
X199742994Y-126223996D01*
X199889501Y-126117553D01*
X200017553Y-125989501D01*
X200123996Y-125842994D01*
X200206211Y-125681639D01*
X200262171Y-125509409D01*
X200276422Y-125419425D01*
X200287527Y-125349321D01*
X200317456Y-125286186D01*
X200376768Y-125249255D01*
X200446630Y-125250253D01*
X200504863Y-125288863D01*
X200532473Y-125349321D01*
X200557829Y-125509410D01*
X200613787Y-125681636D01*
X200613788Y-125681639D01*
X200696006Y-125842997D01*
X200802441Y-125989494D01*
X200802445Y-125989499D01*
X200930500Y-126117554D01*
X200930505Y-126117558D01*
X201054565Y-126207692D01*
X201077006Y-126223996D01*
X201153094Y-126262765D01*
X201238360Y-126306211D01*
X201238363Y-126306212D01*
X201324476Y-126334191D01*
X201410591Y-126362171D01*
X201493429Y-126375291D01*
X201589449Y-126390500D01*
X201589454Y-126390500D01*
X201770551Y-126390500D01*
X201857259Y-126376765D01*
X201949409Y-126362171D01*
X202121639Y-126306211D01*
X202282994Y-126223996D01*
X202429501Y-126117553D01*
X202557553Y-125989501D01*
X202663996Y-125842994D01*
X202746211Y-125681639D01*
X202802171Y-125509409D01*
X202816422Y-125419425D01*
X202827527Y-125349321D01*
X202857456Y-125286186D01*
X202916768Y-125249255D01*
X202986630Y-125250253D01*
X203044863Y-125288863D01*
X203072473Y-125349321D01*
X203097829Y-125509410D01*
X203153787Y-125681636D01*
X203153788Y-125681639D01*
X203236006Y-125842997D01*
X203342441Y-125989494D01*
X203342445Y-125989499D01*
X203470500Y-126117554D01*
X203470505Y-126117558D01*
X203594565Y-126207692D01*
X203617006Y-126223996D01*
X203693094Y-126262765D01*
X203778360Y-126306211D01*
X203778363Y-126306212D01*
X203864476Y-126334191D01*
X203950591Y-126362171D01*
X204033429Y-126375291D01*
X204129449Y-126390500D01*
X204129454Y-126390500D01*
X204310551Y-126390500D01*
X204397259Y-126376765D01*
X204489409Y-126362171D01*
X204661639Y-126306211D01*
X204822994Y-126223996D01*
X204969501Y-126117553D01*
X205097553Y-125989501D01*
X205203996Y-125842994D01*
X205286211Y-125681639D01*
X205342171Y-125509409D01*
X205356422Y-125419425D01*
X205367527Y-125349321D01*
X205397456Y-125286186D01*
X205456768Y-125249255D01*
X205526630Y-125250253D01*
X205584863Y-125288863D01*
X205612473Y-125349321D01*
X205637829Y-125509410D01*
X205693787Y-125681636D01*
X205693788Y-125681639D01*
X205776006Y-125842997D01*
X205882441Y-125989494D01*
X205882445Y-125989499D01*
X206010500Y-126117554D01*
X206010505Y-126117558D01*
X206134565Y-126207692D01*
X206157006Y-126223996D01*
X206233094Y-126262765D01*
X206318360Y-126306211D01*
X206318363Y-126306212D01*
X206404476Y-126334191D01*
X206490591Y-126362171D01*
X206573429Y-126375291D01*
X206669449Y-126390500D01*
X206669454Y-126390500D01*
X206850551Y-126390500D01*
X206937259Y-126376765D01*
X207029409Y-126362171D01*
X207201639Y-126306211D01*
X207362994Y-126223996D01*
X207509501Y-126117553D01*
X207637553Y-125989501D01*
X207743996Y-125842994D01*
X207826211Y-125681639D01*
X207882171Y-125509409D01*
X207896422Y-125419425D01*
X207907527Y-125349321D01*
X207937456Y-125286186D01*
X207996768Y-125249255D01*
X208066630Y-125250253D01*
X208124863Y-125288863D01*
X208152473Y-125349321D01*
X208177829Y-125509410D01*
X208233787Y-125681636D01*
X208233788Y-125681639D01*
X208316006Y-125842997D01*
X208422441Y-125989494D01*
X208422445Y-125989499D01*
X208550500Y-126117554D01*
X208550505Y-126117558D01*
X208674565Y-126207692D01*
X208697006Y-126223996D01*
X208773094Y-126262765D01*
X208858360Y-126306211D01*
X208858363Y-126306212D01*
X208944476Y-126334191D01*
X209030591Y-126362171D01*
X209113429Y-126375291D01*
X209209449Y-126390500D01*
X209209454Y-126390500D01*
X209390551Y-126390500D01*
X209477259Y-126376765D01*
X209569409Y-126362171D01*
X209741639Y-126306211D01*
X209902994Y-126223996D01*
X210049501Y-126117553D01*
X210177553Y-125989501D01*
X210283996Y-125842994D01*
X210366211Y-125681639D01*
X210422171Y-125509409D01*
X210436422Y-125419425D01*
X210447527Y-125349321D01*
X210477456Y-125286186D01*
X210536768Y-125249255D01*
X210606630Y-125250253D01*
X210664863Y-125288863D01*
X210692473Y-125349321D01*
X210717829Y-125509410D01*
X210773787Y-125681636D01*
X210773788Y-125681639D01*
X210856006Y-125842997D01*
X210962441Y-125989494D01*
X210962445Y-125989499D01*
X211090500Y-126117554D01*
X211090505Y-126117558D01*
X211214565Y-126207692D01*
X211237006Y-126223996D01*
X211313094Y-126262765D01*
X211398360Y-126306211D01*
X211398363Y-126306212D01*
X211484476Y-126334191D01*
X211570591Y-126362171D01*
X211653429Y-126375291D01*
X211749449Y-126390500D01*
X211749454Y-126390500D01*
X211930551Y-126390500D01*
X212017259Y-126376765D01*
X212109409Y-126362171D01*
X212281639Y-126306211D01*
X212442994Y-126223996D01*
X212589501Y-126117553D01*
X212717553Y-125989501D01*
X212823996Y-125842994D01*
X212906211Y-125681639D01*
X212962171Y-125509409D01*
X212976422Y-125419425D01*
X212987527Y-125349321D01*
X213017456Y-125286186D01*
X213076768Y-125249255D01*
X213146630Y-125250253D01*
X213204863Y-125288863D01*
X213232473Y-125349321D01*
X213257829Y-125509410D01*
X213313787Y-125681636D01*
X213313788Y-125681639D01*
X213396006Y-125842997D01*
X213502441Y-125989494D01*
X213502445Y-125989499D01*
X213630500Y-126117554D01*
X213630505Y-126117558D01*
X213754565Y-126207692D01*
X213777006Y-126223996D01*
X213853094Y-126262765D01*
X213938360Y-126306211D01*
X213938363Y-126306212D01*
X214024476Y-126334191D01*
X214110591Y-126362171D01*
X214193429Y-126375291D01*
X214289449Y-126390500D01*
X214289454Y-126390500D01*
X214470551Y-126390500D01*
X214557259Y-126376765D01*
X214649409Y-126362171D01*
X214821639Y-126306211D01*
X214982994Y-126223996D01*
X215129501Y-126117553D01*
X215257553Y-125989501D01*
X215363996Y-125842994D01*
X215446211Y-125681639D01*
X215502171Y-125509409D01*
X215516422Y-125419425D01*
X215527527Y-125349321D01*
X215557456Y-125286186D01*
X215616768Y-125249255D01*
X215686630Y-125250253D01*
X215744863Y-125288863D01*
X215772473Y-125349321D01*
X215797829Y-125509410D01*
X215853787Y-125681636D01*
X215853788Y-125681639D01*
X215936006Y-125842997D01*
X216042441Y-125989494D01*
X216042445Y-125989499D01*
X216170500Y-126117554D01*
X216170505Y-126117558D01*
X216294565Y-126207692D01*
X216317006Y-126223996D01*
X216393094Y-126262765D01*
X216478360Y-126306211D01*
X216478363Y-126306212D01*
X216564476Y-126334191D01*
X216650591Y-126362171D01*
X216733429Y-126375291D01*
X216829449Y-126390500D01*
X216829454Y-126390500D01*
X217010551Y-126390500D01*
X217097259Y-126376765D01*
X217189409Y-126362171D01*
X217361639Y-126306211D01*
X217522994Y-126223996D01*
X217669501Y-126117553D01*
X217797553Y-125989501D01*
X217903996Y-125842994D01*
X217986211Y-125681639D01*
X218042171Y-125509409D01*
X218056422Y-125419425D01*
X218067527Y-125349321D01*
X218097456Y-125286186D01*
X218156768Y-125249255D01*
X218226630Y-125250253D01*
X218284863Y-125288863D01*
X218312473Y-125349321D01*
X218337829Y-125509410D01*
X218393787Y-125681636D01*
X218393788Y-125681639D01*
X218476006Y-125842997D01*
X218582441Y-125989494D01*
X218582445Y-125989499D01*
X218710500Y-126117554D01*
X218710505Y-126117558D01*
X218834565Y-126207692D01*
X218857006Y-126223996D01*
X218933094Y-126262765D01*
X219018360Y-126306211D01*
X219018363Y-126306212D01*
X219104476Y-126334191D01*
X219190591Y-126362171D01*
X219273429Y-126375291D01*
X219369449Y-126390500D01*
X219369454Y-126390500D01*
X219550551Y-126390500D01*
X219637259Y-126376765D01*
X219729409Y-126362171D01*
X219901639Y-126306211D01*
X220062994Y-126223996D01*
X220209501Y-126117553D01*
X220337553Y-125989501D01*
X220443996Y-125842994D01*
X220526211Y-125681639D01*
X220582171Y-125509409D01*
X220596422Y-125419425D01*
X220607527Y-125349321D01*
X220637456Y-125286186D01*
X220696768Y-125249255D01*
X220766630Y-125250253D01*
X220824863Y-125288863D01*
X220852473Y-125349321D01*
X220877829Y-125509410D01*
X220933787Y-125681636D01*
X220933788Y-125681639D01*
X221016006Y-125842997D01*
X221122441Y-125989494D01*
X221122445Y-125989499D01*
X221250500Y-126117554D01*
X221250505Y-126117558D01*
X221374565Y-126207692D01*
X221397006Y-126223996D01*
X221473094Y-126262765D01*
X221558360Y-126306211D01*
X221558363Y-126306212D01*
X221644476Y-126334191D01*
X221730591Y-126362171D01*
X221813429Y-126375291D01*
X221909449Y-126390500D01*
X221909454Y-126390500D01*
X222090551Y-126390500D01*
X222177259Y-126376765D01*
X222269409Y-126362171D01*
X222441639Y-126306211D01*
X222602994Y-126223996D01*
X222749501Y-126117553D01*
X222877553Y-125989501D01*
X222983996Y-125842994D01*
X223066211Y-125681639D01*
X223122171Y-125509409D01*
X223136765Y-125417259D01*
X223150500Y-125330551D01*
X223150500Y-125149448D01*
X223134019Y-125045397D01*
X223122171Y-124970591D01*
X223078530Y-124836275D01*
X223066212Y-124798363D01*
X223066211Y-124798360D01*
X223027191Y-124721780D01*
X222983996Y-124637006D01*
X222970396Y-124618287D01*
X222877558Y-124490505D01*
X222877554Y-124490500D01*
X222749499Y-124362445D01*
X222749494Y-124362441D01*
X222602997Y-124256006D01*
X222602996Y-124256005D01*
X222602994Y-124256004D01*
X222526906Y-124217235D01*
X222441639Y-124173788D01*
X222441636Y-124173787D01*
X222269410Y-124117829D01*
X222090551Y-124089500D01*
X222090546Y-124089500D01*
X221909454Y-124089500D01*
X221909449Y-124089500D01*
X221730589Y-124117829D01*
X221558363Y-124173787D01*
X221558360Y-124173788D01*
X221397002Y-124256006D01*
X221250505Y-124362441D01*
X221250500Y-124362445D01*
X221122445Y-124490500D01*
X221122441Y-124490505D01*
X221016006Y-124637002D01*
X220933788Y-124798360D01*
X220933787Y-124798363D01*
X220877829Y-124970589D01*
X220852473Y-125130678D01*
X220822544Y-125193813D01*
X220763232Y-125230744D01*
X220693369Y-125229746D01*
X220635137Y-125191136D01*
X220607527Y-125130678D01*
X220593740Y-125043639D01*
X220582171Y-124970591D01*
X220538530Y-124836275D01*
X220526212Y-124798363D01*
X220526211Y-124798360D01*
X220487191Y-124721780D01*
X220443996Y-124637006D01*
X220430396Y-124618287D01*
X220337558Y-124490505D01*
X220337554Y-124490500D01*
X220209499Y-124362445D01*
X220209494Y-124362441D01*
X220062997Y-124256006D01*
X220062996Y-124256005D01*
X220062994Y-124256004D01*
X219986906Y-124217235D01*
X219901639Y-124173788D01*
X219901636Y-124173787D01*
X219729410Y-124117829D01*
X219550551Y-124089500D01*
X219550546Y-124089500D01*
X219369454Y-124089500D01*
X219369449Y-124089500D01*
X219190589Y-124117829D01*
X219018363Y-124173787D01*
X219018360Y-124173788D01*
X218857002Y-124256006D01*
X218710505Y-124362441D01*
X218710500Y-124362445D01*
X218582445Y-124490500D01*
X218582441Y-124490505D01*
X218476006Y-124637002D01*
X218393788Y-124798360D01*
X218393787Y-124798363D01*
X218337829Y-124970589D01*
X218312473Y-125130678D01*
X218282544Y-125193813D01*
X218223232Y-125230744D01*
X218153369Y-125229746D01*
X218095137Y-125191136D01*
X218067527Y-125130678D01*
X218053740Y-125043639D01*
X218042171Y-124970591D01*
X217998530Y-124836275D01*
X217986212Y-124798363D01*
X217986211Y-124798360D01*
X217947191Y-124721780D01*
X217903996Y-124637006D01*
X217890396Y-124618287D01*
X217797558Y-124490505D01*
X217797554Y-124490500D01*
X217669499Y-124362445D01*
X217669494Y-124362441D01*
X217522997Y-124256006D01*
X217522996Y-124256005D01*
X217522994Y-124256004D01*
X217446906Y-124217235D01*
X217361639Y-124173788D01*
X217361636Y-124173787D01*
X217189410Y-124117829D01*
X217010551Y-124089500D01*
X217010546Y-124089500D01*
X216829454Y-124089500D01*
X216829449Y-124089500D01*
X216650589Y-124117829D01*
X216478363Y-124173787D01*
X216478360Y-124173788D01*
X216317002Y-124256006D01*
X216170505Y-124362441D01*
X216170500Y-124362445D01*
X216042445Y-124490500D01*
X216042441Y-124490505D01*
X215936006Y-124637002D01*
X215853788Y-124798360D01*
X215853787Y-124798363D01*
X215797829Y-124970589D01*
X215772473Y-125130678D01*
X215742544Y-125193813D01*
X215683232Y-125230744D01*
X215613369Y-125229746D01*
X215555137Y-125191136D01*
X215527527Y-125130678D01*
X215513740Y-125043639D01*
X215502171Y-124970591D01*
X215458530Y-124836275D01*
X215446212Y-124798363D01*
X215446211Y-124798360D01*
X215407191Y-124721780D01*
X215363996Y-124637006D01*
X215350396Y-124618287D01*
X215257558Y-124490505D01*
X215257554Y-124490500D01*
X215129499Y-124362445D01*
X215129494Y-124362441D01*
X214982997Y-124256006D01*
X214982996Y-124256005D01*
X214982994Y-124256004D01*
X214906906Y-124217235D01*
X214821639Y-124173788D01*
X214821636Y-124173787D01*
X214649410Y-124117829D01*
X214470551Y-124089500D01*
X214470546Y-124089500D01*
X214289454Y-124089500D01*
X214289449Y-124089500D01*
X214110589Y-124117829D01*
X213938363Y-124173787D01*
X213938360Y-124173788D01*
X213777002Y-124256006D01*
X213630505Y-124362441D01*
X213630500Y-124362445D01*
X213502445Y-124490500D01*
X213502441Y-124490505D01*
X213396006Y-124637002D01*
X213313788Y-124798360D01*
X213313787Y-124798363D01*
X213257829Y-124970589D01*
X213232473Y-125130678D01*
X213202544Y-125193813D01*
X213143232Y-125230744D01*
X213073369Y-125229746D01*
X213015137Y-125191136D01*
X212987527Y-125130678D01*
X212973740Y-125043639D01*
X212962171Y-124970591D01*
X212918530Y-124836275D01*
X212906212Y-124798363D01*
X212906211Y-124798360D01*
X212867191Y-124721780D01*
X212823996Y-124637006D01*
X212810396Y-124618287D01*
X212717558Y-124490505D01*
X212717554Y-124490500D01*
X212589499Y-124362445D01*
X212589494Y-124362441D01*
X212442997Y-124256006D01*
X212442996Y-124256005D01*
X212442994Y-124256004D01*
X212366906Y-124217235D01*
X212281639Y-124173788D01*
X212281636Y-124173787D01*
X212109410Y-124117829D01*
X211930551Y-124089500D01*
X211930546Y-124089500D01*
X211749454Y-124089500D01*
X211749449Y-124089500D01*
X211570589Y-124117829D01*
X211398363Y-124173787D01*
X211398360Y-124173788D01*
X211237002Y-124256006D01*
X211090505Y-124362441D01*
X211090500Y-124362445D01*
X210962445Y-124490500D01*
X210962441Y-124490505D01*
X210856006Y-124637002D01*
X210773788Y-124798360D01*
X210773787Y-124798363D01*
X210717829Y-124970589D01*
X210692473Y-125130678D01*
X210662544Y-125193813D01*
X210603232Y-125230744D01*
X210533369Y-125229746D01*
X210475137Y-125191136D01*
X210447527Y-125130678D01*
X210433740Y-125043639D01*
X210422171Y-124970591D01*
X210378530Y-124836275D01*
X210366212Y-124798363D01*
X210366211Y-124798360D01*
X210327191Y-124721780D01*
X210283996Y-124637006D01*
X210270396Y-124618287D01*
X210177558Y-124490505D01*
X210177554Y-124490500D01*
X210049499Y-124362445D01*
X210049494Y-124362441D01*
X209902997Y-124256006D01*
X209902996Y-124256005D01*
X209902994Y-124256004D01*
X209826906Y-124217235D01*
X209741639Y-124173788D01*
X209741636Y-124173787D01*
X209569410Y-124117829D01*
X209390551Y-124089500D01*
X209390546Y-124089500D01*
X209209454Y-124089500D01*
X209209449Y-124089500D01*
X209030589Y-124117829D01*
X208858363Y-124173787D01*
X208858360Y-124173788D01*
X208697002Y-124256006D01*
X208550505Y-124362441D01*
X208550500Y-124362445D01*
X208422445Y-124490500D01*
X208422441Y-124490505D01*
X208316006Y-124637002D01*
X208233788Y-124798360D01*
X208233787Y-124798363D01*
X208177829Y-124970589D01*
X208152473Y-125130678D01*
X208122544Y-125193813D01*
X208063232Y-125230744D01*
X207993369Y-125229746D01*
X207935137Y-125191136D01*
X207907527Y-125130678D01*
X207893740Y-125043639D01*
X207882171Y-124970591D01*
X207838530Y-124836275D01*
X207826212Y-124798363D01*
X207826211Y-124798360D01*
X207787191Y-124721780D01*
X207743996Y-124637006D01*
X207730396Y-124618287D01*
X207637558Y-124490505D01*
X207637554Y-124490500D01*
X207509499Y-124362445D01*
X207509494Y-124362441D01*
X207362997Y-124256006D01*
X207362996Y-124256005D01*
X207362994Y-124256004D01*
X207286906Y-124217235D01*
X207201639Y-124173788D01*
X207201636Y-124173787D01*
X207029410Y-124117829D01*
X206850551Y-124089500D01*
X206850546Y-124089500D01*
X206669454Y-124089500D01*
X206669449Y-124089500D01*
X206490589Y-124117829D01*
X206318363Y-124173787D01*
X206318360Y-124173788D01*
X206157002Y-124256006D01*
X206010505Y-124362441D01*
X206010500Y-124362445D01*
X205882445Y-124490500D01*
X205882441Y-124490505D01*
X205776006Y-124637002D01*
X205693788Y-124798360D01*
X205693787Y-124798363D01*
X205637829Y-124970589D01*
X205612473Y-125130678D01*
X205582544Y-125193813D01*
X205523232Y-125230744D01*
X205453369Y-125229746D01*
X205395137Y-125191136D01*
X205367527Y-125130678D01*
X205353740Y-125043639D01*
X205342171Y-124970591D01*
X205298530Y-124836275D01*
X205286212Y-124798363D01*
X205286211Y-124798360D01*
X205247191Y-124721780D01*
X205203996Y-124637006D01*
X205190396Y-124618287D01*
X205097558Y-124490505D01*
X205097554Y-124490500D01*
X204969499Y-124362445D01*
X204969494Y-124362441D01*
X204822997Y-124256006D01*
X204822996Y-124256005D01*
X204822994Y-124256004D01*
X204746906Y-124217235D01*
X204661639Y-124173788D01*
X204661636Y-124173787D01*
X204489410Y-124117829D01*
X204310551Y-124089500D01*
X204310546Y-124089500D01*
X204129454Y-124089500D01*
X204129449Y-124089500D01*
X203950589Y-124117829D01*
X203778363Y-124173787D01*
X203778360Y-124173788D01*
X203617002Y-124256006D01*
X203470505Y-124362441D01*
X203470500Y-124362445D01*
X203342445Y-124490500D01*
X203342441Y-124490505D01*
X203236006Y-124637002D01*
X203153788Y-124798360D01*
X203153787Y-124798363D01*
X203097829Y-124970589D01*
X203072473Y-125130678D01*
X203042544Y-125193813D01*
X202983232Y-125230744D01*
X202913369Y-125229746D01*
X202855137Y-125191136D01*
X202827527Y-125130678D01*
X202813740Y-125043639D01*
X202802171Y-124970591D01*
X202758530Y-124836275D01*
X202746212Y-124798363D01*
X202746211Y-124798360D01*
X202707191Y-124721780D01*
X202663996Y-124637006D01*
X202650396Y-124618287D01*
X202557558Y-124490505D01*
X202557554Y-124490500D01*
X202429499Y-124362445D01*
X202429494Y-124362441D01*
X202282997Y-124256006D01*
X202282996Y-124256005D01*
X202282994Y-124256004D01*
X202206906Y-124217235D01*
X202121639Y-124173788D01*
X202121636Y-124173787D01*
X201949410Y-124117829D01*
X201770551Y-124089500D01*
X201770546Y-124089500D01*
X201589454Y-124089500D01*
X201589449Y-124089500D01*
X201410589Y-124117829D01*
X201238363Y-124173787D01*
X201238360Y-124173788D01*
X201077002Y-124256006D01*
X200930505Y-124362441D01*
X200930500Y-124362445D01*
X200802445Y-124490500D01*
X200802441Y-124490505D01*
X200696006Y-124637002D01*
X200613788Y-124798360D01*
X200613787Y-124798363D01*
X200557829Y-124970589D01*
X200532473Y-125130678D01*
X200502544Y-125193813D01*
X200443232Y-125230744D01*
X200373369Y-125229746D01*
X200315137Y-125191136D01*
X200287527Y-125130678D01*
X200273740Y-125043639D01*
X200262171Y-124970591D01*
X200218530Y-124836275D01*
X200206212Y-124798363D01*
X200206211Y-124798360D01*
X200167191Y-124721780D01*
X200123996Y-124637006D01*
X200110396Y-124618287D01*
X200017558Y-124490505D01*
X200017554Y-124490500D01*
X199889499Y-124362445D01*
X199889494Y-124362441D01*
X199742997Y-124256006D01*
X199742996Y-124256005D01*
X199742994Y-124256004D01*
X199666906Y-124217235D01*
X199581639Y-124173788D01*
X199581636Y-124173787D01*
X199409410Y-124117829D01*
X199230551Y-124089500D01*
X199230546Y-124089500D01*
X199049454Y-124089500D01*
X199049449Y-124089500D01*
X198870589Y-124117829D01*
X198698363Y-124173787D01*
X198698360Y-124173788D01*
X198537002Y-124256006D01*
X198390505Y-124362441D01*
X198390500Y-124362445D01*
X198262445Y-124490500D01*
X198262441Y-124490505D01*
X198156006Y-124637002D01*
X198073788Y-124798360D01*
X198073787Y-124798363D01*
X198017829Y-124970589D01*
X197992473Y-125130678D01*
X197962544Y-125193813D01*
X197903232Y-125230744D01*
X197833369Y-125229746D01*
X197775137Y-125191136D01*
X197747527Y-125130678D01*
X197733740Y-125043639D01*
X197722171Y-124970591D01*
X197678530Y-124836275D01*
X197666212Y-124798363D01*
X197666211Y-124798360D01*
X197627191Y-124721780D01*
X197583996Y-124637006D01*
X197570396Y-124618287D01*
X197477558Y-124490505D01*
X197477554Y-124490500D01*
X197349499Y-124362445D01*
X197349494Y-124362441D01*
X197202997Y-124256006D01*
X197202996Y-124256005D01*
X197202994Y-124256004D01*
X197126906Y-124217235D01*
X197041639Y-124173788D01*
X197041636Y-124173787D01*
X196869410Y-124117829D01*
X196690551Y-124089500D01*
X196690546Y-124089500D01*
X196509454Y-124089500D01*
X196509449Y-124089500D01*
X196330589Y-124117829D01*
X196158363Y-124173787D01*
X196158360Y-124173788D01*
X195997002Y-124256006D01*
X195850505Y-124362441D01*
X195850500Y-124362445D01*
X195722445Y-124490500D01*
X195722441Y-124490505D01*
X195616004Y-124637004D01*
X195548908Y-124768685D01*
X195500933Y-124819480D01*
X195433112Y-124836275D01*
X195366977Y-124813737D01*
X195323527Y-124759021D01*
X195320492Y-124750705D01*
X195311094Y-124721780D01*
X195214624Y-124532449D01*
X195175270Y-124478282D01*
X195175269Y-124478282D01*
X194542962Y-125110590D01*
X194525925Y-125047007D01*
X194460099Y-124932993D01*
X194367007Y-124839901D01*
X194252993Y-124774075D01*
X194189409Y-124757037D01*
X194821716Y-124124728D01*
X194767550Y-124085375D01*
X194578217Y-123988904D01*
X194376129Y-123923242D01*
X194166246Y-123890000D01*
X193953754Y-123890000D01*
X193743872Y-123923242D01*
X193743869Y-123923242D01*
X193541782Y-123988904D01*
X193352439Y-124085380D01*
X193298282Y-124124727D01*
X193298282Y-124124728D01*
X193930591Y-124757037D01*
X193867007Y-124774075D01*
X193752993Y-124839901D01*
X193659901Y-124932993D01*
X193594075Y-125047007D01*
X193577037Y-125110590D01*
X192944728Y-124478282D01*
X192944727Y-124478282D01*
X192905380Y-124532439D01*
X192808905Y-124721781D01*
X192799506Y-124750708D01*
X192760068Y-124808383D01*
X192695709Y-124835581D01*
X192626862Y-124823666D01*
X192575387Y-124776421D01*
X192571090Y-124768684D01*
X192547191Y-124721780D01*
X192503996Y-124637006D01*
X192490396Y-124618287D01*
X192397558Y-124490505D01*
X192397554Y-124490500D01*
X192269499Y-124362445D01*
X192269494Y-124362441D01*
X192145432Y-124272305D01*
X192122996Y-124256005D01*
X191961639Y-124173788D01*
X191961636Y-124173787D01*
X191789410Y-124117829D01*
X191610551Y-124089500D01*
X191610546Y-124089500D01*
X191429454Y-124089500D01*
X191429449Y-124089500D01*
X191250589Y-124117829D01*
X191078363Y-124173787D01*
X191078360Y-124173788D01*
X190917002Y-124256006D01*
X190770505Y-124362441D01*
X190770500Y-124362445D01*
X190642445Y-124490500D01*
X190642441Y-124490505D01*
X190536006Y-124637002D01*
X190453788Y-124798360D01*
X190453787Y-124798363D01*
X190397829Y-124970589D01*
X190372473Y-125130678D01*
X190342544Y-125193813D01*
X190283232Y-125230744D01*
X190213369Y-125229746D01*
X190155137Y-125191136D01*
X190127527Y-125130678D01*
X190113740Y-125043639D01*
X190102171Y-124970591D01*
X190058530Y-124836275D01*
X190046212Y-124798363D01*
X190046211Y-124798360D01*
X190007191Y-124721780D01*
X189963996Y-124637006D01*
X189950396Y-124618287D01*
X189857558Y-124490505D01*
X189857554Y-124490500D01*
X189729499Y-124362445D01*
X189729494Y-124362441D01*
X189582997Y-124256006D01*
X189582996Y-124256005D01*
X189582994Y-124256004D01*
X189506906Y-124217235D01*
X189421639Y-124173788D01*
X189421636Y-124173787D01*
X189249410Y-124117829D01*
X189070551Y-124089500D01*
X189070546Y-124089500D01*
X188889454Y-124089500D01*
X188889449Y-124089500D01*
X188710589Y-124117829D01*
X188538363Y-124173787D01*
X188538360Y-124173788D01*
X188377002Y-124256006D01*
X188230505Y-124362441D01*
X188230500Y-124362445D01*
X188102445Y-124490500D01*
X188102441Y-124490505D01*
X187996006Y-124637002D01*
X187913788Y-124798360D01*
X187913787Y-124798363D01*
X187857829Y-124970589D01*
X187836972Y-125102271D01*
X187807042Y-125165405D01*
X187747731Y-125202336D01*
X187677868Y-125201338D01*
X187619636Y-125162728D01*
X187591522Y-125098764D01*
X187590499Y-125082872D01*
X187590499Y-124345143D01*
X187590499Y-124345136D01*
X187590497Y-124345117D01*
X187587586Y-124320012D01*
X187587585Y-124320010D01*
X187587585Y-124320009D01*
X187542206Y-124217235D01*
X187462765Y-124137794D01*
X187462763Y-124137793D01*
X187359992Y-124092415D01*
X187334865Y-124089500D01*
X185545143Y-124089500D01*
X185545117Y-124089502D01*
X185520012Y-124092413D01*
X185520008Y-124092415D01*
X185417235Y-124137793D01*
X185337794Y-124217234D01*
X185292415Y-124320006D01*
X185292415Y-124320008D01*
X185289500Y-124345131D01*
X100500500Y-124345131D01*
X100500500Y-122034038D01*
X105399500Y-122034038D01*
X105399500Y-122285961D01*
X105438910Y-122534785D01*
X105516760Y-122774383D01*
X105631132Y-122998848D01*
X105779201Y-123202649D01*
X105779205Y-123202654D01*
X105957345Y-123380794D01*
X105957350Y-123380798D01*
X106135117Y-123509952D01*
X106161155Y-123528870D01*
X106304184Y-123601747D01*
X106385616Y-123643239D01*
X106385618Y-123643239D01*
X106385621Y-123643241D01*
X106625215Y-123721090D01*
X106874038Y-123760500D01*
X106874039Y-123760500D01*
X107125961Y-123760500D01*
X107125962Y-123760500D01*
X107374785Y-123721090D01*
X107614379Y-123643241D01*
X107838845Y-123528870D01*
X108042656Y-123380793D01*
X108220793Y-123202656D01*
X108368870Y-122998845D01*
X108483241Y-122774379D01*
X108561090Y-122534785D01*
X108600500Y-122285962D01*
X108600500Y-122034038D01*
X108561090Y-121785215D01*
X108483241Y-121545621D01*
X108483239Y-121545618D01*
X108483239Y-121545616D01*
X108441747Y-121464184D01*
X108368870Y-121321155D01*
X108349952Y-121295117D01*
X108220798Y-121117350D01*
X108220794Y-121117345D01*
X108042654Y-120939205D01*
X108042649Y-120939201D01*
X107838848Y-120791132D01*
X107838847Y-120791131D01*
X107838845Y-120791130D01*
X107768747Y-120755413D01*
X107614383Y-120676760D01*
X107374785Y-120598910D01*
X107125962Y-120559500D01*
X106874038Y-120559500D01*
X106749626Y-120579205D01*
X106625214Y-120598910D01*
X106385616Y-120676760D01*
X106161151Y-120791132D01*
X105957350Y-120939201D01*
X105957345Y-120939205D01*
X105779205Y-121117345D01*
X105779201Y-121117350D01*
X105631132Y-121321151D01*
X105516760Y-121545616D01*
X105438910Y-121785214D01*
X105399500Y-122034038D01*
X100500500Y-122034038D01*
X100500500Y-116962014D01*
X105200000Y-116962014D01*
X105200000Y-117197985D01*
X105230799Y-117431914D01*
X105291870Y-117659837D01*
X105382160Y-117877819D01*
X105382165Y-117877828D01*
X105500144Y-118082171D01*
X105500145Y-118082172D01*
X105562721Y-118163723D01*
X106398958Y-117327487D01*
X106423978Y-117387890D01*
X106495112Y-117494351D01*
X106585649Y-117584888D01*
X106692110Y-117656022D01*
X106752511Y-117681041D01*
X105916275Y-118517277D01*
X105997827Y-118579854D01*
X105997828Y-118579855D01*
X106202171Y-118697834D01*
X106202180Y-118697839D01*
X106420163Y-118788129D01*
X106420161Y-118788129D01*
X106648085Y-118849200D01*
X106882014Y-118879999D01*
X106882029Y-118880000D01*
X107117971Y-118880000D01*
X107117985Y-118879999D01*
X107351914Y-118849200D01*
X107579837Y-118788129D01*
X107797819Y-118697839D01*
X107797828Y-118697834D01*
X108002181Y-118579850D01*
X108083723Y-118517279D01*
X108083723Y-118517276D01*
X107247487Y-117681041D01*
X107307890Y-117656022D01*
X107414351Y-117584888D01*
X107504888Y-117494351D01*
X107576022Y-117387890D01*
X107601041Y-117327487D01*
X108437276Y-118163723D01*
X108437279Y-118163723D01*
X108499850Y-118082181D01*
X108617834Y-117877828D01*
X108617839Y-117877819D01*
X108708129Y-117659837D01*
X108769200Y-117431914D01*
X108799999Y-117197985D01*
X108800000Y-117197971D01*
X108800000Y-116962028D01*
X108799999Y-116962014D01*
X108769200Y-116728085D01*
X108708129Y-116500162D01*
X108617839Y-116282180D01*
X108617834Y-116282171D01*
X108499855Y-116077828D01*
X108499854Y-116077827D01*
X108437277Y-115996275D01*
X107601041Y-116832511D01*
X107576022Y-116772110D01*
X107504888Y-116665649D01*
X107414351Y-116575112D01*
X107307890Y-116503978D01*
X107247488Y-116478958D01*
X108083723Y-115642721D01*
X108002172Y-115580145D01*
X108002171Y-115580144D01*
X107797828Y-115462165D01*
X107797819Y-115462160D01*
X107579836Y-115371870D01*
X107579838Y-115371870D01*
X107351914Y-115310799D01*
X107117985Y-115280000D01*
X106882014Y-115280000D01*
X106648085Y-115310799D01*
X106420162Y-115371870D01*
X106202180Y-115462160D01*
X106202171Y-115462165D01*
X105997828Y-115580144D01*
X105997818Y-115580150D01*
X105916275Y-115642720D01*
X105916275Y-115642721D01*
X106752512Y-116478958D01*
X106692110Y-116503978D01*
X106585649Y-116575112D01*
X106495112Y-116665649D01*
X106423978Y-116772110D01*
X106398958Y-116832512D01*
X105562721Y-115996275D01*
X105562720Y-115996275D01*
X105500150Y-116077818D01*
X105500144Y-116077828D01*
X105382165Y-116282171D01*
X105382160Y-116282180D01*
X105291870Y-116500162D01*
X105230799Y-116728085D01*
X105200000Y-116962014D01*
X100500500Y-116962014D01*
X100500500Y-110906898D01*
X105399500Y-110906898D01*
X105399500Y-113093102D01*
X105405126Y-113139954D01*
X105410122Y-113181561D01*
X105465639Y-113322343D01*
X105557077Y-113442922D01*
X105677656Y-113534360D01*
X105677657Y-113534360D01*
X105677658Y-113534361D01*
X105818436Y-113589877D01*
X105906898Y-113600500D01*
X105906903Y-113600500D01*
X108093097Y-113600500D01*
X108093102Y-113600500D01*
X108181564Y-113589877D01*
X108322342Y-113534361D01*
X108442922Y-113442922D01*
X108534361Y-113322342D01*
X108589877Y-113181564D01*
X108600500Y-113093102D01*
X108600500Y-110906898D01*
X108589877Y-110818436D01*
X108534361Y-110677658D01*
X108534360Y-110677657D01*
X108534360Y-110677656D01*
X108442922Y-110557077D01*
X108322343Y-110465639D01*
X108181561Y-110410122D01*
X108134064Y-110404419D01*
X108093102Y-110399500D01*
X105906898Y-110399500D01*
X105867853Y-110404188D01*
X105818438Y-110410122D01*
X105677656Y-110465639D01*
X105557077Y-110557077D01*
X105465639Y-110677656D01*
X105410122Y-110818438D01*
X105404188Y-110867853D01*
X105399500Y-110906898D01*
X100500500Y-110906898D01*
X100500500Y-109105131D01*
X185289500Y-109105131D01*
X185289500Y-110894856D01*
X185289502Y-110894882D01*
X185292413Y-110919987D01*
X185292415Y-110919991D01*
X185337793Y-111022764D01*
X185337794Y-111022765D01*
X185417235Y-111102206D01*
X185520009Y-111147585D01*
X185545135Y-111150500D01*
X187334864Y-111150499D01*
X187334879Y-111150497D01*
X187334882Y-111150497D01*
X187359987Y-111147586D01*
X187359988Y-111147585D01*
X187359991Y-111147585D01*
X187462765Y-111102206D01*
X187542206Y-111022765D01*
X187587585Y-110919991D01*
X187590500Y-110894865D01*
X187590499Y-110763076D01*
X187610183Y-110696040D01*
X187662987Y-110650285D01*
X187732145Y-110640341D01*
X187795701Y-110669365D01*
X187822495Y-110703600D01*
X187822829Y-110703396D01*
X187824607Y-110706297D01*
X187824977Y-110706770D01*
X187825373Y-110707547D01*
X187864728Y-110761716D01*
X188497037Y-110129408D01*
X188514075Y-110192993D01*
X188579901Y-110307007D01*
X188672993Y-110400099D01*
X188787007Y-110465925D01*
X188850590Y-110482962D01*
X188218282Y-111115269D01*
X188218282Y-111115270D01*
X188272449Y-111154624D01*
X188461782Y-111251095D01*
X188663870Y-111316757D01*
X188873754Y-111350000D01*
X189086246Y-111350000D01*
X189296127Y-111316757D01*
X189296130Y-111316757D01*
X189498217Y-111251095D01*
X189687554Y-111154622D01*
X189741716Y-111115270D01*
X189741717Y-111115270D01*
X189109408Y-110482962D01*
X189172993Y-110465925D01*
X189287007Y-110400099D01*
X189380099Y-110307007D01*
X189445925Y-110192993D01*
X189462962Y-110129408D01*
X190095270Y-110761717D01*
X190095270Y-110761716D01*
X190134622Y-110707554D01*
X190231095Y-110518217D01*
X190240492Y-110489295D01*
X190279928Y-110431618D01*
X190344286Y-110404419D01*
X190413133Y-110416331D01*
X190464610Y-110463574D01*
X190468908Y-110471314D01*
X190536004Y-110602995D01*
X190642441Y-110749494D01*
X190642445Y-110749499D01*
X190770500Y-110877554D01*
X190770505Y-110877558D01*
X190898287Y-110970396D01*
X190917006Y-110983996D01*
X190993094Y-111022765D01*
X191078360Y-111066211D01*
X191078363Y-111066212D01*
X191164476Y-111094191D01*
X191250591Y-111122171D01*
X191333429Y-111135291D01*
X191429449Y-111150500D01*
X191429454Y-111150500D01*
X191610551Y-111150500D01*
X191697259Y-111136765D01*
X191789409Y-111122171D01*
X191961639Y-111066211D01*
X192122994Y-110983996D01*
X192269501Y-110877553D01*
X192397553Y-110749501D01*
X192503996Y-110602994D01*
X192586211Y-110441639D01*
X192642171Y-110269409D01*
X192656422Y-110179425D01*
X192667527Y-110109321D01*
X192697456Y-110046186D01*
X192756768Y-110009255D01*
X192826630Y-110010253D01*
X192884863Y-110048863D01*
X192912473Y-110109321D01*
X192937829Y-110269410D01*
X192993787Y-110441636D01*
X192993788Y-110441639D01*
X193049664Y-110551300D01*
X193052608Y-110557078D01*
X193076006Y-110602997D01*
X193182441Y-110749494D01*
X193182445Y-110749499D01*
X193310500Y-110877554D01*
X193310505Y-110877558D01*
X193438287Y-110970396D01*
X193457006Y-110983996D01*
X193533094Y-111022765D01*
X193618360Y-111066211D01*
X193618363Y-111066212D01*
X193704476Y-111094191D01*
X193790591Y-111122171D01*
X193873429Y-111135291D01*
X193969449Y-111150500D01*
X193969454Y-111150500D01*
X194150551Y-111150500D01*
X194237259Y-111136765D01*
X194329409Y-111122171D01*
X194501639Y-111066211D01*
X194662994Y-110983996D01*
X194809501Y-110877553D01*
X194937553Y-110749501D01*
X195043996Y-110602994D01*
X195126211Y-110441639D01*
X195182171Y-110269409D01*
X195196422Y-110179425D01*
X195207527Y-110109321D01*
X195237456Y-110046186D01*
X195296768Y-110009255D01*
X195366630Y-110010253D01*
X195424863Y-110048863D01*
X195452473Y-110109321D01*
X195477829Y-110269410D01*
X195533787Y-110441636D01*
X195533788Y-110441639D01*
X195589664Y-110551300D01*
X195592608Y-110557078D01*
X195616006Y-110602997D01*
X195722441Y-110749494D01*
X195722445Y-110749499D01*
X195850500Y-110877554D01*
X195850505Y-110877558D01*
X195978287Y-110970396D01*
X195997006Y-110983996D01*
X196073094Y-111022765D01*
X196158360Y-111066211D01*
X196158363Y-111066212D01*
X196244476Y-111094191D01*
X196330591Y-111122171D01*
X196413429Y-111135291D01*
X196509449Y-111150500D01*
X196509454Y-111150500D01*
X196690551Y-111150500D01*
X196777259Y-111136765D01*
X196869409Y-111122171D01*
X197041639Y-111066211D01*
X197202994Y-110983996D01*
X197349501Y-110877553D01*
X197477553Y-110749501D01*
X197583996Y-110602994D01*
X197666211Y-110441639D01*
X197722171Y-110269409D01*
X197736422Y-110179425D01*
X197747527Y-110109321D01*
X197777456Y-110046186D01*
X197836768Y-110009255D01*
X197906630Y-110010253D01*
X197964863Y-110048863D01*
X197992473Y-110109321D01*
X198017829Y-110269410D01*
X198073787Y-110441636D01*
X198073788Y-110441639D01*
X198129664Y-110551300D01*
X198132608Y-110557078D01*
X198156006Y-110602997D01*
X198262441Y-110749494D01*
X198262445Y-110749499D01*
X198390500Y-110877554D01*
X198390505Y-110877558D01*
X198518287Y-110970396D01*
X198537006Y-110983996D01*
X198613094Y-111022765D01*
X198698360Y-111066211D01*
X198698363Y-111066212D01*
X198784476Y-111094191D01*
X198870591Y-111122171D01*
X198953429Y-111135291D01*
X199049449Y-111150500D01*
X199049454Y-111150500D01*
X199230551Y-111150500D01*
X199317259Y-111136765D01*
X199409409Y-111122171D01*
X199581639Y-111066211D01*
X199742994Y-110983996D01*
X199889501Y-110877553D01*
X200017553Y-110749501D01*
X200123996Y-110602994D01*
X200206211Y-110441639D01*
X200262171Y-110269409D01*
X200276422Y-110179425D01*
X200287527Y-110109321D01*
X200317456Y-110046186D01*
X200376768Y-110009255D01*
X200446630Y-110010253D01*
X200504863Y-110048863D01*
X200532473Y-110109321D01*
X200557829Y-110269410D01*
X200613787Y-110441636D01*
X200613788Y-110441639D01*
X200669664Y-110551300D01*
X200672608Y-110557078D01*
X200696006Y-110602997D01*
X200802441Y-110749494D01*
X200802445Y-110749499D01*
X200930500Y-110877554D01*
X200930505Y-110877558D01*
X201058287Y-110970396D01*
X201077006Y-110983996D01*
X201153094Y-111022765D01*
X201238360Y-111066211D01*
X201238363Y-111066212D01*
X201324476Y-111094191D01*
X201410591Y-111122171D01*
X201493429Y-111135291D01*
X201589449Y-111150500D01*
X201589454Y-111150500D01*
X201770551Y-111150500D01*
X201857259Y-111136765D01*
X201949409Y-111122171D01*
X202121639Y-111066211D01*
X202282994Y-110983996D01*
X202429501Y-110877553D01*
X202557553Y-110749501D01*
X202663996Y-110602994D01*
X202746211Y-110441639D01*
X202802171Y-110269409D01*
X202816422Y-110179425D01*
X202827527Y-110109321D01*
X202857456Y-110046186D01*
X202916768Y-110009255D01*
X202986630Y-110010253D01*
X203044863Y-110048863D01*
X203072473Y-110109321D01*
X203097829Y-110269410D01*
X203153787Y-110441636D01*
X203153788Y-110441639D01*
X203209664Y-110551300D01*
X203212608Y-110557078D01*
X203236006Y-110602997D01*
X203342441Y-110749494D01*
X203342445Y-110749499D01*
X203470500Y-110877554D01*
X203470505Y-110877558D01*
X203598287Y-110970396D01*
X203617006Y-110983996D01*
X203693094Y-111022765D01*
X203778360Y-111066211D01*
X203778363Y-111066212D01*
X203864476Y-111094191D01*
X203950591Y-111122171D01*
X204033429Y-111135291D01*
X204129449Y-111150500D01*
X204129454Y-111150500D01*
X204310551Y-111150500D01*
X204397259Y-111136765D01*
X204489409Y-111122171D01*
X204661639Y-111066211D01*
X204822994Y-110983996D01*
X204969501Y-110877553D01*
X205097553Y-110749501D01*
X205203996Y-110602994D01*
X205286211Y-110441639D01*
X205342171Y-110269409D01*
X205356422Y-110179425D01*
X205367527Y-110109321D01*
X205397456Y-110046186D01*
X205456768Y-110009255D01*
X205526630Y-110010253D01*
X205584863Y-110048863D01*
X205612473Y-110109321D01*
X205637829Y-110269410D01*
X205693787Y-110441636D01*
X205693788Y-110441639D01*
X205749664Y-110551300D01*
X205752608Y-110557078D01*
X205776006Y-110602997D01*
X205882441Y-110749494D01*
X205882445Y-110749499D01*
X206010500Y-110877554D01*
X206010505Y-110877558D01*
X206138287Y-110970396D01*
X206157006Y-110983996D01*
X206233094Y-111022765D01*
X206318360Y-111066211D01*
X206318363Y-111066212D01*
X206404476Y-111094191D01*
X206490591Y-111122171D01*
X206573429Y-111135291D01*
X206669449Y-111150500D01*
X206669454Y-111150500D01*
X206850551Y-111150500D01*
X206937259Y-111136765D01*
X207029409Y-111122171D01*
X207201639Y-111066211D01*
X207362994Y-110983996D01*
X207509501Y-110877553D01*
X207637553Y-110749501D01*
X207743996Y-110602994D01*
X207826211Y-110441639D01*
X207882171Y-110269409D01*
X207896422Y-110179425D01*
X207907527Y-110109321D01*
X207937456Y-110046186D01*
X207996768Y-110009255D01*
X208066630Y-110010253D01*
X208124863Y-110048863D01*
X208152473Y-110109321D01*
X208177829Y-110269410D01*
X208233787Y-110441636D01*
X208233788Y-110441639D01*
X208289664Y-110551300D01*
X208292608Y-110557078D01*
X208316006Y-110602997D01*
X208422441Y-110749494D01*
X208422445Y-110749499D01*
X208550500Y-110877554D01*
X208550505Y-110877558D01*
X208678287Y-110970396D01*
X208697006Y-110983996D01*
X208773094Y-111022765D01*
X208858360Y-111066211D01*
X208858363Y-111066212D01*
X208944476Y-111094191D01*
X209030591Y-111122171D01*
X209113429Y-111135291D01*
X209209449Y-111150500D01*
X209209454Y-111150500D01*
X209390551Y-111150500D01*
X209477259Y-111136765D01*
X209569409Y-111122171D01*
X209741639Y-111066211D01*
X209902994Y-110983996D01*
X210049501Y-110877553D01*
X210177553Y-110749501D01*
X210283996Y-110602994D01*
X210366211Y-110441639D01*
X210422171Y-110269409D01*
X210436422Y-110179425D01*
X210447527Y-110109321D01*
X210477456Y-110046186D01*
X210536768Y-110009255D01*
X210606630Y-110010253D01*
X210664863Y-110048863D01*
X210692473Y-110109321D01*
X210717829Y-110269410D01*
X210773787Y-110441636D01*
X210773788Y-110441639D01*
X210829664Y-110551300D01*
X210832608Y-110557078D01*
X210856006Y-110602997D01*
X210962441Y-110749494D01*
X210962445Y-110749499D01*
X211090500Y-110877554D01*
X211090505Y-110877558D01*
X211218287Y-110970396D01*
X211237006Y-110983996D01*
X211313094Y-111022765D01*
X211398360Y-111066211D01*
X211398363Y-111066212D01*
X211484476Y-111094191D01*
X211570591Y-111122171D01*
X211653429Y-111135291D01*
X211749449Y-111150500D01*
X211749454Y-111150500D01*
X211930551Y-111150500D01*
X212017259Y-111136765D01*
X212109409Y-111122171D01*
X212281639Y-111066211D01*
X212442994Y-110983996D01*
X212589501Y-110877553D01*
X212717553Y-110749501D01*
X212823996Y-110602994D01*
X212906211Y-110441639D01*
X212962171Y-110269409D01*
X212976422Y-110179425D01*
X212987527Y-110109321D01*
X213017456Y-110046186D01*
X213076768Y-110009255D01*
X213146630Y-110010253D01*
X213204863Y-110048863D01*
X213232473Y-110109321D01*
X213257829Y-110269410D01*
X213313787Y-110441636D01*
X213313788Y-110441639D01*
X213369664Y-110551300D01*
X213372608Y-110557078D01*
X213396006Y-110602997D01*
X213502441Y-110749494D01*
X213502445Y-110749499D01*
X213630500Y-110877554D01*
X213630505Y-110877558D01*
X213758287Y-110970396D01*
X213777006Y-110983996D01*
X213853094Y-111022765D01*
X213938360Y-111066211D01*
X213938363Y-111066212D01*
X214024476Y-111094191D01*
X214110591Y-111122171D01*
X214193429Y-111135291D01*
X214289449Y-111150500D01*
X214289454Y-111150500D01*
X214470551Y-111150500D01*
X214557259Y-111136765D01*
X214649409Y-111122171D01*
X214821639Y-111066211D01*
X214982994Y-110983996D01*
X215129501Y-110877553D01*
X215257553Y-110749501D01*
X215363996Y-110602994D01*
X215446211Y-110441639D01*
X215502171Y-110269409D01*
X215516422Y-110179425D01*
X215527527Y-110109321D01*
X215557456Y-110046186D01*
X215616768Y-110009255D01*
X215686630Y-110010253D01*
X215744863Y-110048863D01*
X215772473Y-110109321D01*
X215797829Y-110269410D01*
X215853787Y-110441636D01*
X215853788Y-110441639D01*
X215909664Y-110551300D01*
X215912608Y-110557078D01*
X215936006Y-110602997D01*
X216042441Y-110749494D01*
X216042445Y-110749499D01*
X216170500Y-110877554D01*
X216170505Y-110877558D01*
X216298287Y-110970396D01*
X216317006Y-110983996D01*
X216393094Y-111022765D01*
X216478360Y-111066211D01*
X216478363Y-111066212D01*
X216564476Y-111094191D01*
X216650591Y-111122171D01*
X216733429Y-111135291D01*
X216829449Y-111150500D01*
X216829454Y-111150500D01*
X217010551Y-111150500D01*
X217097259Y-111136765D01*
X217189409Y-111122171D01*
X217361639Y-111066211D01*
X217522994Y-110983996D01*
X217669501Y-110877553D01*
X217797553Y-110749501D01*
X217903996Y-110602994D01*
X217986211Y-110441639D01*
X218042171Y-110269409D01*
X218056422Y-110179425D01*
X218067527Y-110109321D01*
X218097456Y-110046186D01*
X218156768Y-110009255D01*
X218226630Y-110010253D01*
X218284863Y-110048863D01*
X218312473Y-110109321D01*
X218337829Y-110269410D01*
X218393787Y-110441636D01*
X218393788Y-110441639D01*
X218449664Y-110551300D01*
X218452608Y-110557078D01*
X218476006Y-110602997D01*
X218582441Y-110749494D01*
X218582445Y-110749499D01*
X218710500Y-110877554D01*
X218710505Y-110877558D01*
X218838287Y-110970396D01*
X218857006Y-110983996D01*
X218933094Y-111022765D01*
X219018360Y-111066211D01*
X219018363Y-111066212D01*
X219104476Y-111094191D01*
X219190591Y-111122171D01*
X219273429Y-111135291D01*
X219369449Y-111150500D01*
X219369454Y-111150500D01*
X219550551Y-111150500D01*
X219637259Y-111136765D01*
X219729409Y-111122171D01*
X219901639Y-111066211D01*
X220062994Y-110983996D01*
X220209501Y-110877553D01*
X220337553Y-110749501D01*
X220443996Y-110602994D01*
X220526211Y-110441639D01*
X220582171Y-110269409D01*
X220596422Y-110179425D01*
X220607527Y-110109321D01*
X220637456Y-110046186D01*
X220696768Y-110009255D01*
X220766630Y-110010253D01*
X220824863Y-110048863D01*
X220852473Y-110109321D01*
X220877829Y-110269410D01*
X220933787Y-110441636D01*
X220933788Y-110441639D01*
X220989664Y-110551300D01*
X220992608Y-110557078D01*
X221016006Y-110602997D01*
X221122441Y-110749494D01*
X221122445Y-110749499D01*
X221250500Y-110877554D01*
X221250505Y-110877558D01*
X221378287Y-110970396D01*
X221397006Y-110983996D01*
X221473094Y-111022765D01*
X221558360Y-111066211D01*
X221558363Y-111066212D01*
X221644476Y-111094191D01*
X221730591Y-111122171D01*
X221813429Y-111135291D01*
X221909449Y-111150500D01*
X221909454Y-111150500D01*
X222090551Y-111150500D01*
X222177259Y-111136765D01*
X222269409Y-111122171D01*
X222441639Y-111066211D01*
X222602994Y-110983996D01*
X222749501Y-110877553D01*
X222877553Y-110749501D01*
X222983996Y-110602994D01*
X223066211Y-110441639D01*
X223122171Y-110269409D01*
X223136765Y-110177259D01*
X223150500Y-110090551D01*
X223150500Y-109909448D01*
X223134019Y-109805397D01*
X223122171Y-109730591D01*
X223066211Y-109558361D01*
X223066211Y-109558360D01*
X223027191Y-109481780D01*
X222983996Y-109397006D01*
X222970396Y-109378287D01*
X222877558Y-109250505D01*
X222877554Y-109250500D01*
X222749499Y-109122445D01*
X222749494Y-109122441D01*
X222602997Y-109016006D01*
X222602996Y-109016005D01*
X222602994Y-109016004D01*
X222526906Y-108977235D01*
X222441639Y-108933788D01*
X222441636Y-108933787D01*
X222269410Y-108877829D01*
X222090551Y-108849500D01*
X222090546Y-108849500D01*
X221909454Y-108849500D01*
X221909449Y-108849500D01*
X221730589Y-108877829D01*
X221558363Y-108933787D01*
X221558360Y-108933788D01*
X221397002Y-109016006D01*
X221250505Y-109122441D01*
X221250500Y-109122445D01*
X221122445Y-109250500D01*
X221122441Y-109250505D01*
X221016006Y-109397002D01*
X220933788Y-109558360D01*
X220933787Y-109558363D01*
X220877829Y-109730589D01*
X220852473Y-109890678D01*
X220822544Y-109953813D01*
X220763232Y-109990744D01*
X220693369Y-109989746D01*
X220635137Y-109951136D01*
X220607527Y-109890678D01*
X220593740Y-109803639D01*
X220582171Y-109730591D01*
X220526211Y-109558361D01*
X220526211Y-109558360D01*
X220487191Y-109481780D01*
X220443996Y-109397006D01*
X220430396Y-109378287D01*
X220337558Y-109250505D01*
X220337554Y-109250500D01*
X220209499Y-109122445D01*
X220209494Y-109122441D01*
X220062997Y-109016006D01*
X220062996Y-109016005D01*
X220062994Y-109016004D01*
X219986906Y-108977235D01*
X219901639Y-108933788D01*
X219901636Y-108933787D01*
X219729410Y-108877829D01*
X219550551Y-108849500D01*
X219550546Y-108849500D01*
X219369454Y-108849500D01*
X219369449Y-108849500D01*
X219190589Y-108877829D01*
X219018363Y-108933787D01*
X219018360Y-108933788D01*
X218857002Y-109016006D01*
X218710505Y-109122441D01*
X218710500Y-109122445D01*
X218582445Y-109250500D01*
X218582441Y-109250505D01*
X218476006Y-109397002D01*
X218393788Y-109558360D01*
X218393787Y-109558363D01*
X218337829Y-109730589D01*
X218312473Y-109890678D01*
X218282544Y-109953813D01*
X218223232Y-109990744D01*
X218153369Y-109989746D01*
X218095137Y-109951136D01*
X218067527Y-109890678D01*
X218053740Y-109803639D01*
X218042171Y-109730591D01*
X217986211Y-109558361D01*
X217986211Y-109558360D01*
X217947191Y-109481780D01*
X217903996Y-109397006D01*
X217890396Y-109378287D01*
X217797558Y-109250505D01*
X217797554Y-109250500D01*
X217669499Y-109122445D01*
X217669494Y-109122441D01*
X217522997Y-109016006D01*
X217522996Y-109016005D01*
X217522994Y-109016004D01*
X217446906Y-108977235D01*
X217361639Y-108933788D01*
X217361636Y-108933787D01*
X217189410Y-108877829D01*
X217010551Y-108849500D01*
X217010546Y-108849500D01*
X216829454Y-108849500D01*
X216829449Y-108849500D01*
X216650589Y-108877829D01*
X216478363Y-108933787D01*
X216478360Y-108933788D01*
X216317002Y-109016006D01*
X216170505Y-109122441D01*
X216170500Y-109122445D01*
X216042445Y-109250500D01*
X216042441Y-109250505D01*
X215936006Y-109397002D01*
X215853788Y-109558360D01*
X215853787Y-109558363D01*
X215797829Y-109730589D01*
X215772473Y-109890678D01*
X215742544Y-109953813D01*
X215683232Y-109990744D01*
X215613369Y-109989746D01*
X215555137Y-109951136D01*
X215527527Y-109890678D01*
X215513740Y-109803639D01*
X215502171Y-109730591D01*
X215446211Y-109558361D01*
X215446211Y-109558360D01*
X215407191Y-109481780D01*
X215363996Y-109397006D01*
X215350396Y-109378287D01*
X215257558Y-109250505D01*
X215257554Y-109250500D01*
X215129499Y-109122445D01*
X215129494Y-109122441D01*
X214982997Y-109016006D01*
X214982996Y-109016005D01*
X214982994Y-109016004D01*
X214906906Y-108977235D01*
X214821639Y-108933788D01*
X214821636Y-108933787D01*
X214649410Y-108877829D01*
X214470551Y-108849500D01*
X214470546Y-108849500D01*
X214289454Y-108849500D01*
X214289449Y-108849500D01*
X214110589Y-108877829D01*
X213938363Y-108933787D01*
X213938360Y-108933788D01*
X213777002Y-109016006D01*
X213630505Y-109122441D01*
X213630500Y-109122445D01*
X213502445Y-109250500D01*
X213502441Y-109250505D01*
X213396006Y-109397002D01*
X213313788Y-109558360D01*
X213313787Y-109558363D01*
X213257829Y-109730589D01*
X213232473Y-109890678D01*
X213202544Y-109953813D01*
X213143232Y-109990744D01*
X213073369Y-109989746D01*
X213015137Y-109951136D01*
X212987527Y-109890678D01*
X212973740Y-109803639D01*
X212962171Y-109730591D01*
X212906211Y-109558361D01*
X212906211Y-109558360D01*
X212867191Y-109481780D01*
X212823996Y-109397006D01*
X212810396Y-109378287D01*
X212717558Y-109250505D01*
X212717554Y-109250500D01*
X212589499Y-109122445D01*
X212589494Y-109122441D01*
X212442997Y-109016006D01*
X212442996Y-109016005D01*
X212442994Y-109016004D01*
X212366906Y-108977235D01*
X212281639Y-108933788D01*
X212281636Y-108933787D01*
X212109410Y-108877829D01*
X211930551Y-108849500D01*
X211930546Y-108849500D01*
X211749454Y-108849500D01*
X211749449Y-108849500D01*
X211570589Y-108877829D01*
X211398363Y-108933787D01*
X211398360Y-108933788D01*
X211237002Y-109016006D01*
X211090505Y-109122441D01*
X211090500Y-109122445D01*
X210962445Y-109250500D01*
X210962441Y-109250505D01*
X210856006Y-109397002D01*
X210773788Y-109558360D01*
X210773787Y-109558363D01*
X210717829Y-109730589D01*
X210692473Y-109890678D01*
X210662544Y-109953813D01*
X210603232Y-109990744D01*
X210533369Y-109989746D01*
X210475137Y-109951136D01*
X210447527Y-109890678D01*
X210433740Y-109803639D01*
X210422171Y-109730591D01*
X210366211Y-109558361D01*
X210366211Y-109558360D01*
X210327191Y-109481780D01*
X210283996Y-109397006D01*
X210270396Y-109378287D01*
X210177558Y-109250505D01*
X210177554Y-109250500D01*
X210049499Y-109122445D01*
X210049494Y-109122441D01*
X209902997Y-109016006D01*
X209902996Y-109016005D01*
X209902994Y-109016004D01*
X209826906Y-108977235D01*
X209741639Y-108933788D01*
X209741636Y-108933787D01*
X209569410Y-108877829D01*
X209390551Y-108849500D01*
X209390546Y-108849500D01*
X209209454Y-108849500D01*
X209209449Y-108849500D01*
X209030589Y-108877829D01*
X208858363Y-108933787D01*
X208858360Y-108933788D01*
X208697002Y-109016006D01*
X208550505Y-109122441D01*
X208550500Y-109122445D01*
X208422445Y-109250500D01*
X208422441Y-109250505D01*
X208316006Y-109397002D01*
X208233788Y-109558360D01*
X208233787Y-109558363D01*
X208177829Y-109730589D01*
X208152473Y-109890678D01*
X208122544Y-109953813D01*
X208063232Y-109990744D01*
X207993369Y-109989746D01*
X207935137Y-109951136D01*
X207907527Y-109890678D01*
X207893740Y-109803639D01*
X207882171Y-109730591D01*
X207826211Y-109558361D01*
X207826211Y-109558360D01*
X207787191Y-109481780D01*
X207743996Y-109397006D01*
X207730396Y-109378287D01*
X207637558Y-109250505D01*
X207637554Y-109250500D01*
X207509499Y-109122445D01*
X207509494Y-109122441D01*
X207362997Y-109016006D01*
X207362996Y-109016005D01*
X207362994Y-109016004D01*
X207286906Y-108977235D01*
X207201639Y-108933788D01*
X207201636Y-108933787D01*
X207029410Y-108877829D01*
X206850551Y-108849500D01*
X206850546Y-108849500D01*
X206669454Y-108849500D01*
X206669449Y-108849500D01*
X206490589Y-108877829D01*
X206318363Y-108933787D01*
X206318360Y-108933788D01*
X206157002Y-109016006D01*
X206010505Y-109122441D01*
X206010500Y-109122445D01*
X205882445Y-109250500D01*
X205882441Y-109250505D01*
X205776006Y-109397002D01*
X205693788Y-109558360D01*
X205693787Y-109558363D01*
X205637829Y-109730589D01*
X205612473Y-109890678D01*
X205582544Y-109953813D01*
X205523232Y-109990744D01*
X205453369Y-109989746D01*
X205395137Y-109951136D01*
X205367527Y-109890678D01*
X205353740Y-109803639D01*
X205342171Y-109730591D01*
X205286211Y-109558361D01*
X205286211Y-109558360D01*
X205247191Y-109481780D01*
X205203996Y-109397006D01*
X205190396Y-109378287D01*
X205097558Y-109250505D01*
X205097554Y-109250500D01*
X204969499Y-109122445D01*
X204969494Y-109122441D01*
X204822997Y-109016006D01*
X204822996Y-109016005D01*
X204822994Y-109016004D01*
X204746906Y-108977235D01*
X204661639Y-108933788D01*
X204661636Y-108933787D01*
X204489410Y-108877829D01*
X204310551Y-108849500D01*
X204310546Y-108849500D01*
X204129454Y-108849500D01*
X204129449Y-108849500D01*
X203950589Y-108877829D01*
X203778363Y-108933787D01*
X203778360Y-108933788D01*
X203617002Y-109016006D01*
X203470505Y-109122441D01*
X203470500Y-109122445D01*
X203342445Y-109250500D01*
X203342441Y-109250505D01*
X203236006Y-109397002D01*
X203153788Y-109558360D01*
X203153787Y-109558363D01*
X203097829Y-109730589D01*
X203072473Y-109890678D01*
X203042544Y-109953813D01*
X202983232Y-109990744D01*
X202913369Y-109989746D01*
X202855137Y-109951136D01*
X202827527Y-109890678D01*
X202813740Y-109803639D01*
X202802171Y-109730591D01*
X202746211Y-109558361D01*
X202746211Y-109558360D01*
X202707191Y-109481780D01*
X202663996Y-109397006D01*
X202650396Y-109378287D01*
X202557558Y-109250505D01*
X202557554Y-109250500D01*
X202429499Y-109122445D01*
X202429494Y-109122441D01*
X202282997Y-109016006D01*
X202282996Y-109016005D01*
X202282994Y-109016004D01*
X202206906Y-108977235D01*
X202121639Y-108933788D01*
X202121636Y-108933787D01*
X201949410Y-108877829D01*
X201770551Y-108849500D01*
X201770546Y-108849500D01*
X201589454Y-108849500D01*
X201589449Y-108849500D01*
X201410589Y-108877829D01*
X201238363Y-108933787D01*
X201238360Y-108933788D01*
X201077002Y-109016006D01*
X200930505Y-109122441D01*
X200930500Y-109122445D01*
X200802445Y-109250500D01*
X200802441Y-109250505D01*
X200696006Y-109397002D01*
X200613788Y-109558360D01*
X200613787Y-109558363D01*
X200557829Y-109730589D01*
X200532473Y-109890678D01*
X200502544Y-109953813D01*
X200443232Y-109990744D01*
X200373369Y-109989746D01*
X200315137Y-109951136D01*
X200287527Y-109890678D01*
X200273740Y-109803639D01*
X200262171Y-109730591D01*
X200206211Y-109558361D01*
X200206211Y-109558360D01*
X200167191Y-109481780D01*
X200123996Y-109397006D01*
X200110396Y-109378287D01*
X200017558Y-109250505D01*
X200017554Y-109250500D01*
X199889499Y-109122445D01*
X199889494Y-109122441D01*
X199742997Y-109016006D01*
X199742996Y-109016005D01*
X199742994Y-109016004D01*
X199666906Y-108977235D01*
X199581639Y-108933788D01*
X199581636Y-108933787D01*
X199409410Y-108877829D01*
X199230551Y-108849500D01*
X199230546Y-108849500D01*
X199049454Y-108849500D01*
X199049449Y-108849500D01*
X198870589Y-108877829D01*
X198698363Y-108933787D01*
X198698360Y-108933788D01*
X198537002Y-109016006D01*
X198390505Y-109122441D01*
X198390500Y-109122445D01*
X198262445Y-109250500D01*
X198262441Y-109250505D01*
X198156006Y-109397002D01*
X198073788Y-109558360D01*
X198073787Y-109558363D01*
X198017829Y-109730589D01*
X197992473Y-109890678D01*
X197962544Y-109953813D01*
X197903232Y-109990744D01*
X197833369Y-109989746D01*
X197775137Y-109951136D01*
X197747527Y-109890678D01*
X197733740Y-109803639D01*
X197722171Y-109730591D01*
X197666211Y-109558361D01*
X197666211Y-109558360D01*
X197627191Y-109481780D01*
X197583996Y-109397006D01*
X197570396Y-109378287D01*
X197477558Y-109250505D01*
X197477554Y-109250500D01*
X197349499Y-109122445D01*
X197349494Y-109122441D01*
X197202997Y-109016006D01*
X197202996Y-109016005D01*
X197202994Y-109016004D01*
X197126906Y-108977235D01*
X197041639Y-108933788D01*
X197041636Y-108933787D01*
X196869410Y-108877829D01*
X196690551Y-108849500D01*
X196690546Y-108849500D01*
X196509454Y-108849500D01*
X196509449Y-108849500D01*
X196330589Y-108877829D01*
X196158363Y-108933787D01*
X196158360Y-108933788D01*
X195997002Y-109016006D01*
X195850505Y-109122441D01*
X195850500Y-109122445D01*
X195722445Y-109250500D01*
X195722441Y-109250505D01*
X195616006Y-109397002D01*
X195533788Y-109558360D01*
X195533787Y-109558363D01*
X195477829Y-109730589D01*
X195452473Y-109890678D01*
X195422544Y-109953813D01*
X195363232Y-109990744D01*
X195293369Y-109989746D01*
X195235137Y-109951136D01*
X195207527Y-109890678D01*
X195193740Y-109803639D01*
X195182171Y-109730591D01*
X195126211Y-109558361D01*
X195126211Y-109558360D01*
X195087191Y-109481780D01*
X195043996Y-109397006D01*
X195030396Y-109378287D01*
X194937558Y-109250505D01*
X194937554Y-109250500D01*
X194809499Y-109122445D01*
X194809494Y-109122441D01*
X194662997Y-109016006D01*
X194662996Y-109016005D01*
X194662994Y-109016004D01*
X194586906Y-108977235D01*
X194501639Y-108933788D01*
X194501636Y-108933787D01*
X194329410Y-108877829D01*
X194150551Y-108849500D01*
X194150546Y-108849500D01*
X193969454Y-108849500D01*
X193969449Y-108849500D01*
X193790589Y-108877829D01*
X193618363Y-108933787D01*
X193618360Y-108933788D01*
X193457002Y-109016006D01*
X193310505Y-109122441D01*
X193310500Y-109122445D01*
X193182445Y-109250500D01*
X193182441Y-109250505D01*
X193076006Y-109397002D01*
X192993788Y-109558360D01*
X192993787Y-109558363D01*
X192937829Y-109730589D01*
X192912473Y-109890678D01*
X192882544Y-109953813D01*
X192823232Y-109990744D01*
X192753369Y-109989746D01*
X192695137Y-109951136D01*
X192667527Y-109890678D01*
X192653740Y-109803639D01*
X192642171Y-109730591D01*
X192586211Y-109558361D01*
X192586211Y-109558360D01*
X192547191Y-109481780D01*
X192503996Y-109397006D01*
X192490396Y-109378287D01*
X192397558Y-109250505D01*
X192397554Y-109250500D01*
X192269499Y-109122445D01*
X192269494Y-109122441D01*
X192122997Y-109016006D01*
X192122996Y-109016005D01*
X192122994Y-109016004D01*
X192046906Y-108977235D01*
X191961639Y-108933788D01*
X191961636Y-108933787D01*
X191789410Y-108877829D01*
X191610551Y-108849500D01*
X191610546Y-108849500D01*
X191429454Y-108849500D01*
X191429449Y-108849500D01*
X191250589Y-108877829D01*
X191078363Y-108933787D01*
X191078360Y-108933788D01*
X190917002Y-109016006D01*
X190770505Y-109122441D01*
X190770500Y-109122445D01*
X190642445Y-109250500D01*
X190642441Y-109250505D01*
X190536004Y-109397004D01*
X190468908Y-109528685D01*
X190420933Y-109579480D01*
X190353112Y-109596275D01*
X190286977Y-109573737D01*
X190243527Y-109519021D01*
X190240492Y-109510705D01*
X190231094Y-109481780D01*
X190134624Y-109292449D01*
X190095270Y-109238282D01*
X190095269Y-109238282D01*
X189462962Y-109870590D01*
X189445925Y-109807007D01*
X189380099Y-109692993D01*
X189287007Y-109599901D01*
X189172993Y-109534075D01*
X189109409Y-109517037D01*
X189741716Y-108884728D01*
X189687550Y-108845375D01*
X189498217Y-108748904D01*
X189296129Y-108683242D01*
X189086246Y-108650000D01*
X188873754Y-108650000D01*
X188663872Y-108683242D01*
X188663869Y-108683242D01*
X188461782Y-108748904D01*
X188272439Y-108845380D01*
X188218282Y-108884727D01*
X188218282Y-108884728D01*
X188850591Y-109517037D01*
X188787007Y-109534075D01*
X188672993Y-109599901D01*
X188579901Y-109692993D01*
X188514075Y-109807007D01*
X188497037Y-109870590D01*
X187864728Y-109238282D01*
X187864727Y-109238282D01*
X187825380Y-109292440D01*
X187825377Y-109292445D01*
X187824981Y-109293223D01*
X187824752Y-109293464D01*
X187822838Y-109296590D01*
X187822180Y-109296187D01*
X187777004Y-109344017D01*
X187709183Y-109360809D01*
X187643049Y-109338268D01*
X187599600Y-109283551D01*
X187590499Y-109236923D01*
X187590499Y-109105143D01*
X187590499Y-109105136D01*
X187590497Y-109105117D01*
X187587586Y-109080012D01*
X187587585Y-109080011D01*
X187587585Y-109080009D01*
X187542206Y-108977235D01*
X187462765Y-108897794D01*
X187462763Y-108897793D01*
X187359992Y-108852415D01*
X187334865Y-108849500D01*
X185545143Y-108849500D01*
X185545117Y-108849502D01*
X185520012Y-108852413D01*
X185520008Y-108852415D01*
X185417235Y-108897793D01*
X185337794Y-108977234D01*
X185292415Y-109080006D01*
X185292415Y-109080008D01*
X185289500Y-109105131D01*
X100500500Y-109105131D01*
X100500500Y-103878711D01*
X102149500Y-103878711D01*
X102149500Y-104121288D01*
X102181161Y-104361785D01*
X102243947Y-104596104D01*
X102336773Y-104820205D01*
X102336776Y-104820212D01*
X102458064Y-105030289D01*
X102458066Y-105030292D01*
X102458067Y-105030293D01*
X102605733Y-105222736D01*
X102605739Y-105222743D01*
X102777256Y-105394260D01*
X102777262Y-105394265D01*
X102969711Y-105541936D01*
X103179788Y-105663224D01*
X103403900Y-105756054D01*
X103638211Y-105818838D01*
X103818586Y-105842584D01*
X103878711Y-105850500D01*
X103878712Y-105850500D01*
X104121289Y-105850500D01*
X104169388Y-105844167D01*
X104361789Y-105818838D01*
X104596100Y-105756054D01*
X104820212Y-105663224D01*
X105030289Y-105541936D01*
X105222738Y-105394265D01*
X105394265Y-105222738D01*
X105541936Y-105030289D01*
X105663224Y-104820212D01*
X105756054Y-104596100D01*
X105818838Y-104361789D01*
X105850500Y-104121288D01*
X105850500Y-103878712D01*
X105850500Y-103878711D01*
X224149500Y-103878711D01*
X224149500Y-104121288D01*
X224181161Y-104361785D01*
X224243947Y-104596104D01*
X224336773Y-104820205D01*
X224336776Y-104820212D01*
X224458064Y-105030289D01*
X224458066Y-105030292D01*
X224458067Y-105030293D01*
X224605733Y-105222736D01*
X224605739Y-105222743D01*
X224777256Y-105394260D01*
X224777262Y-105394265D01*
X224969711Y-105541936D01*
X225179788Y-105663224D01*
X225403900Y-105756054D01*
X225638211Y-105818838D01*
X225818586Y-105842584D01*
X225878711Y-105850500D01*
X225878712Y-105850500D01*
X226121289Y-105850500D01*
X226169388Y-105844167D01*
X226361789Y-105818838D01*
X226596100Y-105756054D01*
X226820212Y-105663224D01*
X227030289Y-105541936D01*
X227222738Y-105394265D01*
X227394265Y-105222738D01*
X227541936Y-105030289D01*
X227663224Y-104820212D01*
X227756054Y-104596100D01*
X227818838Y-104361789D01*
X227850500Y-104121288D01*
X227850500Y-103878712D01*
X227818838Y-103638211D01*
X227756054Y-103403900D01*
X227663224Y-103179788D01*
X227541936Y-102969711D01*
X227394265Y-102777262D01*
X227394260Y-102777256D01*
X227222743Y-102605739D01*
X227222736Y-102605733D01*
X227030293Y-102458067D01*
X227030292Y-102458066D01*
X227030289Y-102458064D01*
X226820212Y-102336776D01*
X226820205Y-102336773D01*
X226596104Y-102243947D01*
X226361785Y-102181161D01*
X226121289Y-102149500D01*
X226121288Y-102149500D01*
X225878712Y-102149500D01*
X225878711Y-102149500D01*
X225638214Y-102181161D01*
X225403895Y-102243947D01*
X225179794Y-102336773D01*
X225179785Y-102336777D01*
X224969706Y-102458067D01*
X224777263Y-102605733D01*
X224777256Y-102605739D01*
X224605739Y-102777256D01*
X224605733Y-102777263D01*
X224458067Y-102969706D01*
X224336777Y-103179785D01*
X224336773Y-103179794D01*
X224243947Y-103403895D01*
X224181161Y-103638214D01*
X224149500Y-103878711D01*
X105850500Y-103878711D01*
X105818838Y-103638211D01*
X105756054Y-103403900D01*
X105663224Y-103179788D01*
X105541936Y-102969711D01*
X105394265Y-102777262D01*
X105394260Y-102777256D01*
X105222743Y-102605739D01*
X105222736Y-102605733D01*
X105030293Y-102458067D01*
X105030292Y-102458066D01*
X105030289Y-102458064D01*
X104820212Y-102336776D01*
X104820205Y-102336773D01*
X104596104Y-102243947D01*
X104361785Y-102181161D01*
X104121289Y-102149500D01*
X104121288Y-102149500D01*
X103878712Y-102149500D01*
X103878711Y-102149500D01*
X103638214Y-102181161D01*
X103403895Y-102243947D01*
X103179794Y-102336773D01*
X103179785Y-102336777D01*
X102969706Y-102458067D01*
X102777263Y-102605733D01*
X102777256Y-102605739D01*
X102605739Y-102777256D01*
X102605733Y-102777263D01*
X102458067Y-102969706D01*
X102336777Y-103179785D01*
X102336773Y-103179794D01*
X102243947Y-103403895D01*
X102181161Y-103638214D01*
X102149500Y-103878711D01*
X100500500Y-103878711D01*
X100500500Y-102004427D01*
X100500816Y-101995581D01*
X100515130Y-101795443D01*
X100515131Y-101795434D01*
X100517646Y-101777938D01*
X100559356Y-101586199D01*
X100564333Y-101569248D01*
X100632911Y-101385385D01*
X100640259Y-101369298D01*
X100702815Y-101254734D01*
X100734291Y-101197089D01*
X100743845Y-101182221D01*
X100861448Y-101025123D01*
X100873020Y-101011769D01*
X101011769Y-100873020D01*
X101025123Y-100861448D01*
X101182221Y-100743845D01*
X101197089Y-100734291D01*
X101369298Y-100640258D01*
X101385385Y-100632911D01*
X101569248Y-100564333D01*
X101586199Y-100559356D01*
X101777938Y-100517646D01*
X101795436Y-100515130D01*
X101995582Y-100500816D01*
X102004428Y-100500500D01*
X102065892Y-100500500D01*
X227934108Y-100500500D01*
X227995572Y-100500500D01*
X228004418Y-100500816D01*
G37*
G04 #@! TD.AperFunction*
M02*
