G04 #@! TF.GenerationSoftware,KiCad,Pcbnew,9.0.6*
G04 #@! TF.CreationDate,2026-09-15T02:34:59-07:00*
G04 #@! TF.ProjectId,four-tone-driver,666f7572-2d74-46f6-9e65-2d6472697665,rev?*
G04 #@! TF.SameCoordinates,Original*
G04 #@! TF.FileFunction,Paste,Top*
G04 #@! TF.FilePolarity,Positive*
%FSLAX46Y46*%
G04 Gerber Fmt 4.6, Leading zero omitted, Abs format (unit mm)*
G04 Created by KiCad (PCBNEW 9.0.6) date 2026-09-15 02:34:59*
%MOMM*%
%LPD*%
G01*
G04 APERTURE LIST*
G04 Aperture macros list*
%AMRoundRect*
0 Rectangle with rounded corners*
0 $1 Rounding radius*
0 $2 $3 $4 $5 $6 $7 $8 $9 X,Y pos of 4 corners*
0 Add a 4 corners polygon primitive as box body*
4,1,4,$2,$3,$4,$5,$6,$7,$8,$9,$2,$3,0*
0 Add four circle primitives for the rounded corners*
1,1,$1+$1,$2,$3*
1,1,$1+$1,$4,$5*
1,1,$1+$1,$6,$7*
1,1,$1+$1,$8,$9*
0 Add four rect primitives between the rounded corners*
20,1,$1+$1,$2,$3,$4,$5,0*
20,1,$1+$1,$4,$5,$6,$7,0*
20,1,$1+$1,$6,$7,$8,$9,0*
20,1,$1+$1,$8,$9,$2,$3,0*%
G04 Aperture macros list end*
%ADD10RoundRect,0.250000X-1.000000X-0.650000X1.000000X-0.650000X1.000000X0.650000X-1.000000X0.650000X0*%
%ADD11RoundRect,0.200000X-0.275000X0.200000X-0.275000X-0.200000X0.275000X-0.200000X0.275000X0.200000X0*%
%ADD12RoundRect,0.218750X-0.218750X-0.256250X0.218750X-0.256250X0.218750X0.256250X-0.218750X0.256250X0*%
%ADD13RoundRect,0.200000X-0.200000X-0.275000X0.200000X-0.275000X0.200000X0.275000X-0.200000X0.275000X0*%
%ADD14RoundRect,0.250000X0.475000X-0.250000X0.475000X0.250000X-0.475000X0.250000X-0.475000X-0.250000X0*%
%ADD15RoundRect,0.150000X-0.150000X0.587500X-0.150000X-0.587500X0.150000X-0.587500X0.150000X0.587500X0*%
%ADD16RoundRect,0.250000X-1.500000X-0.550000X1.500000X-0.550000X1.500000X0.550000X-1.500000X0.550000X0*%
%ADD17RoundRect,0.250000X-0.250000X-0.475000X0.250000X-0.475000X0.250000X0.475000X-0.250000X0.475000X0*%
%ADD18RoundRect,0.225000X-0.225000X-0.250000X0.225000X-0.250000X0.225000X0.250000X-0.225000X0.250000X0*%
%ADD19RoundRect,0.225000X0.250000X-0.225000X0.250000X0.225000X-0.250000X0.225000X-0.250000X-0.225000X0*%
G04 APERTURE END LIST*
D10*
X171000000Y-154000000D03*
X175000000Y-154000000D03*
D11*
X212500000Y-137175000D03*
X212500000Y-138825000D03*
X193500000Y-137175000D03*
X193500000Y-138825000D03*
D12*
X120712500Y-148000000D03*
X122287500Y-148000000D03*
X177712500Y-148000000D03*
X179287500Y-148000000D03*
X139712500Y-148000000D03*
X141287500Y-148000000D03*
D13*
X196675000Y-143000000D03*
X198325000Y-143000000D03*
D11*
X174500000Y-137175000D03*
X174500000Y-138825000D03*
D14*
X178000000Y-112950000D03*
X178000000Y-111050000D03*
D15*
X191950000Y-145062500D03*
X190050000Y-145062500D03*
X191000000Y-146937500D03*
D10*
X209000000Y-154000000D03*
X213000000Y-154000000D03*
D11*
X206500000Y-139175000D03*
X206500000Y-140825000D03*
D12*
X215712500Y-148000000D03*
X217287500Y-148000000D03*
D15*
X210950000Y-145062500D03*
X209050000Y-145062500D03*
X210000000Y-146937500D03*
D11*
X155500000Y-137175000D03*
X155500000Y-138825000D03*
D16*
X121300000Y-114000000D03*
X126700000Y-114000000D03*
D11*
X136500000Y-137175000D03*
X136500000Y-138825000D03*
D10*
X114000000Y-154000000D03*
X118000000Y-154000000D03*
D15*
X172950000Y-145062500D03*
X171050000Y-145062500D03*
X172000000Y-146937500D03*
D13*
X177675000Y-143000000D03*
X179325000Y-143000000D03*
X158675000Y-143000000D03*
X160325000Y-143000000D03*
X139675000Y-143000000D03*
X141325000Y-143000000D03*
D10*
X190000000Y-154000000D03*
X194000000Y-154000000D03*
D11*
X149500000Y-139175000D03*
X149500000Y-140825000D03*
D10*
X152000000Y-154000000D03*
X156000000Y-154000000D03*
D11*
X130500000Y-139175000D03*
X130500000Y-140825000D03*
D15*
X153950000Y-145062500D03*
X152050000Y-145062500D03*
X153000000Y-146937500D03*
D12*
X158712500Y-148000000D03*
X160287500Y-148000000D03*
D15*
X115950000Y-145062500D03*
X114050000Y-145062500D03*
X115000000Y-146937500D03*
D10*
X133000000Y-154000000D03*
X137000000Y-154000000D03*
D13*
X215675000Y-143000000D03*
X217325000Y-143000000D03*
X120675000Y-143000000D03*
X122325000Y-143000000D03*
D17*
X123050000Y-120500000D03*
X124950000Y-120500000D03*
D11*
X111500000Y-139175000D03*
X111500000Y-140825000D03*
D18*
X123225000Y-124000000D03*
X124775000Y-124000000D03*
D11*
X168500000Y-139175000D03*
X168500000Y-140825000D03*
D12*
X196712500Y-148000000D03*
X198287500Y-148000000D03*
D15*
X134950000Y-145062500D03*
X133050000Y-145062500D03*
X134000000Y-146937500D03*
D11*
X117500000Y-137175000D03*
X117500000Y-138825000D03*
X187500000Y-139175000D03*
X187500000Y-140825000D03*
D19*
X178000000Y-117775000D03*
X178000000Y-116225000D03*
M02*
