M48
; DRILL file {KiCad 9.0.6} date 2026-09-15T02:35:01-0700
; FORMAT={-:-/ absolute / metric / decimal}
; #@! TF.CreationDate,2026-09-15T02:35:01-07:00
; #@! TF.GenerationSoftware,Kicad,Pcbnew,9.0.6
; #@! TF.FileFunction,Plated,1,2,PTH
FMAT,2
METRIC
; #@! TA.AperFunction,Plated,PTH,ViaDrill
T1C0.300
; #@! TA.AperFunction,Plated,PTH,ComponentDrill
T2C1.000
; #@! TA.AperFunction,Plated,PTH,ComponentDrill
T3C1.300
%
G90
G05
T1
X105.0Y-155.0
X106.717Y-114.35
X115.0Y-105.0
X115.0Y-135.0
X115.0Y-165.0
X125.0Y-105.0
X125.0Y-135.0
X125.0Y-145.0
X125.0Y-155.0
X125.0Y-165.0
X135.0Y-115.0
X135.0Y-135.0
X135.0Y-155.0
X135.0Y-165.0
X137.21Y-146.94
X145.0Y-115.0
X145.0Y-135.0
X145.0Y-145.0
X145.0Y-155.0
X145.0Y-165.0
X155.0Y-105.0
X155.0Y-115.0
X155.0Y-135.0
X155.0Y-145.0
X155.0Y-165.0
X165.0Y-135.0
X165.0Y-155.0
X165.0Y-165.0
X169.677Y-146.451
X175.0Y-105.0
X175.0Y-115.0
X175.0Y-125.0
X175.0Y-135.0
X175.0Y-165.0
X175.29Y-146.79
X185.0Y-105.0
X185.0Y-115.0
X185.0Y-135.0
X185.0Y-145.0
X185.0Y-155.0
X185.0Y-165.0
X195.0Y-105.0
X195.0Y-115.0
X195.0Y-135.0
X195.0Y-145.0
X195.0Y-165.0
X205.0Y-105.0
X205.0Y-115.0
X205.0Y-135.0
X205.0Y-145.0
X205.0Y-155.0
X205.0Y-165.0
X215.0Y-105.0
X215.0Y-115.0
X215.0Y-145.0
X215.0Y-155.0
X215.0Y-165.0
X225.0Y-125.0
X225.0Y-135.0
X225.0Y-145.0
X225.0Y-155.0
T2
X114.75Y-162.0
X117.25Y-162.0
X133.75Y-162.0
X136.25Y-162.0
X152.75Y-162.0
X155.25Y-162.0
X171.75Y-162.0
X174.25Y-162.0
X186.44Y-110.0
X186.44Y-125.24
X188.98Y-110.0
X188.98Y-125.24
X190.75Y-162.0
X191.52Y-110.0
X191.52Y-125.24
X193.25Y-162.0
X194.06Y-110.0
X194.06Y-125.24
X196.6Y-110.0
X196.6Y-125.24
X199.14Y-110.0
X199.14Y-125.24
X201.68Y-110.0
X201.68Y-125.24
X204.22Y-110.0
X204.22Y-125.24
X206.76Y-110.0
X206.76Y-125.24
X209.3Y-110.0
X209.3Y-125.24
X209.75Y-162.0
X211.84Y-110.0
X211.84Y-125.24
X212.25Y-162.0
X214.38Y-110.0
X214.38Y-125.24
X216.92Y-110.0
X216.92Y-125.24
X219.46Y-110.0
X219.46Y-125.24
X222.0Y-110.0
X222.0Y-125.24
T3
X107.0Y-112.0
X107.0Y-117.08
X107.0Y-122.16
X107.0Y-127.24
M30
