G04 #@! TF.GenerationSoftware,KiCad,Pcbnew,9.0.6*
G04 #@! TF.CreationDate,2026-09-15T02:34:59-07:00*
G04 #@! TF.ProjectId,four-tone-driver,666f7572-2d74-46f6-9e65-2d6472697665,rev?*
G04 #@! TF.SameCoordinates,Original*
G04 #@! TF.FileFunction,Legend,Bot*
G04 #@! TF.FilePolarity,Positive*
%FSLAX46Y46*%
G04 Gerber Fmt 4.6, Leading zero omitted, Abs format (unit mm)*
G04 Created by KiCad (PCBNEW 9.0.6) date 2026-09-15 02:34:59*
%MOMM*%
%LPD*%
G01*
G04 APERTURE LIST*
G04 Aperture macros list*
%AMRoundRect*
0 Rectangle with rounded corners*
0 $1 Rounding radius*
0 $2 $3 $4 $5 $6 $7 $8 $9 X,Y pos of 4 corners*
0 Add a 4 corners polygon primitive as box body*
4,1,4,$2,$3,$4,$5,$6,$7,$8,$9,$2,$3,0*
0 Add four circle primitives for the rounded corners*
1,1,$1+$1,$2,$3*
1,1,$1+$1,$4,$5*
1,1,$1+$1,$6,$7*
1,1,$1+$1,$8,$9*
0 Add four rect primitives between the rounded corners*
20,1,$1+$1,$2,$3,$4,$5,0*
20,1,$1+$1,$4,$5,$6,$7,0*
20,1,$1+$1,$6,$7,$8,$9,0*
20,1,$1+$1,$8,$9,$2,$3,0*%
G04 Aperture macros list end*
%ADD10C,3.200000*%
%ADD11R,1.700000X1.700000*%
%ADD12C,1.700000*%
%ADD13RoundRect,0.250000X-0.600000X-0.750000X0.600000X-0.750000X0.600000X0.750000X-0.600000X0.750000X0*%
%ADD14O,1.700000X2.000000*%
%ADD15RoundRect,0.250000X-1.050000X1.050000X-1.050000X-1.050000X1.050000X-1.050000X1.050000X1.050000X0*%
%ADD16C,2.600000*%
G04 APERTURE END LIST*
%LPC*%
D10*
X226000000Y-166000000D03*
X104000000Y-104000000D03*
D11*
X186440000Y-125240000D03*
D12*
X188980000Y-125240000D03*
X191520000Y-125240000D03*
X194060000Y-125240000D03*
X196600000Y-125240000D03*
X199140000Y-125240000D03*
X201680000Y-125240000D03*
X204220000Y-125240000D03*
X206760000Y-125240000D03*
X209300000Y-125240000D03*
X211840000Y-125240000D03*
X214380000Y-125240000D03*
X216920000Y-125240000D03*
X219460000Y-125240000D03*
X222000000Y-125240000D03*
D10*
X226000000Y-104000000D03*
D13*
X209750000Y-162000000D03*
D14*
X212250000Y-162000000D03*
D13*
X133750000Y-162000000D03*
D14*
X136250000Y-162000000D03*
D15*
X107000000Y-112000000D03*
D16*
X107000000Y-117080000D03*
X107000000Y-122160000D03*
X107000000Y-127240000D03*
D10*
X104000000Y-166000000D03*
D13*
X190750000Y-162000000D03*
D14*
X193250000Y-162000000D03*
D13*
X171750000Y-162000000D03*
D14*
X174250000Y-162000000D03*
D11*
X186440000Y-110000000D03*
D12*
X188980000Y-110000000D03*
X191520000Y-110000000D03*
X194060000Y-110000000D03*
X196600000Y-110000000D03*
X199140000Y-110000000D03*
X201680000Y-110000000D03*
X204220000Y-110000000D03*
X206760000Y-110000000D03*
X209300000Y-110000000D03*
X211840000Y-110000000D03*
X214380000Y-110000000D03*
X216920000Y-110000000D03*
X219460000Y-110000000D03*
X222000000Y-110000000D03*
D13*
X114750000Y-162000000D03*
D14*
X117250000Y-162000000D03*
D13*
X152750000Y-162000000D03*
D14*
X155250000Y-162000000D03*
%LPD*%
M02*
