%TF.GenerationSoftware,KiCad,Pcbnew,9.0.6*%
%TF.CreationDate,2026-09-15T02:35:01-07:00*%
%TF.ProjectId,four-tone-driver,666f7572-2d74-46f6-9e65-2d6472697665,rev?*%
%TF.SameCoordinates,Original*%
%TF.FileFunction,Drillmap*%
%TF.FilePolarity,Positive*%
%FSLAX45Y45*%
G04 Gerber Fmt 4.5, Leading zero omitted, Abs format (unit mm)*
G04 Created by KiCad (PCBNEW 9.0.6) date 2026-09-15 02:35:01*
%MOMM*%
%LPD*%
G01*
G04 APERTURE LIST*
%ADD10C,0.100000*%
%ADD11C,0.200000*%
%ADD12C,0.320000*%
G04 APERTURE END LIST*
D10*
X10000000Y-10200000D02*
G75*
G02*
X10200000Y-10000000I200000J0D01*
G01*
X23000000Y-10200000D02*
X23000000Y-16800000D01*
X22800000Y-17000000D02*
X10200000Y-17000000D01*
X22800000Y-10000000D02*
G75*
G02*
X23000000Y-10200000I0J-200000D01*
G01*
X10200000Y-17000000D02*
G75*
G02*
X10000000Y-16800000I0J200000D01*
G01*
X23000000Y-16800000D02*
G75*
G02*
X22800000Y-17000000I-200000J0D01*
G01*
X10000000Y-16800000D02*
X10000000Y-10200000D01*
X10200000Y-10000000D02*
X22800000Y-10000000D01*
D11*
D12*
X10240000Y-10240000D02*
X10560000Y-10560000D01*
X10560000Y-10240000D02*
X10240000Y-10560000D01*
X10240000Y-16440000D02*
X10560000Y-16760000D01*
X10560000Y-16440000D02*
X10240000Y-16760000D01*
X22440000Y-10240000D02*
X22760000Y-10560000D01*
X22760000Y-10240000D02*
X22440000Y-10560000D01*
X22440000Y-16440000D02*
X22760000Y-16760000D01*
X22760000Y-16440000D02*
X22440000Y-16760000D01*
D11*
X10255777Y-17316484D02*
X10255777Y-17116484D01*
X10255777Y-17116484D02*
X10303396Y-17116484D01*
X10303396Y-17116484D02*
X10331967Y-17126008D01*
X10331967Y-17126008D02*
X10351015Y-17145055D01*
X10351015Y-17145055D02*
X10360539Y-17164103D01*
X10360539Y-17164103D02*
X10370063Y-17202198D01*
X10370063Y-17202198D02*
X10370063Y-17230770D01*
X10370063Y-17230770D02*
X10360539Y-17268865D01*
X10360539Y-17268865D02*
X10351015Y-17287912D01*
X10351015Y-17287912D02*
X10331967Y-17306960D01*
X10331967Y-17306960D02*
X10303396Y-17316484D01*
X10303396Y-17316484D02*
X10255777Y-17316484D01*
X10455777Y-17316484D02*
X10455777Y-17183150D01*
X10455777Y-17221246D02*
X10465301Y-17202198D01*
X10465301Y-17202198D02*
X10474824Y-17192674D01*
X10474824Y-17192674D02*
X10493872Y-17183150D01*
X10493872Y-17183150D02*
X10512920Y-17183150D01*
X10579586Y-17316484D02*
X10579586Y-17183150D01*
X10579586Y-17116484D02*
X10570063Y-17126008D01*
X10570063Y-17126008D02*
X10579586Y-17135531D01*
X10579586Y-17135531D02*
X10589110Y-17126008D01*
X10589110Y-17126008D02*
X10579586Y-17116484D01*
X10579586Y-17116484D02*
X10579586Y-17135531D01*
X10703396Y-17316484D02*
X10684348Y-17306960D01*
X10684348Y-17306960D02*
X10674824Y-17287912D01*
X10674824Y-17287912D02*
X10674824Y-17116484D01*
X10808158Y-17316484D02*
X10789110Y-17306960D01*
X10789110Y-17306960D02*
X10779586Y-17287912D01*
X10779586Y-17287912D02*
X10779586Y-17116484D01*
X11036729Y-17316484D02*
X11036729Y-17116484D01*
X11036729Y-17116484D02*
X11103396Y-17259341D01*
X11103396Y-17259341D02*
X11170063Y-17116484D01*
X11170063Y-17116484D02*
X11170063Y-17316484D01*
X11351015Y-17316484D02*
X11351015Y-17211722D01*
X11351015Y-17211722D02*
X11341491Y-17192674D01*
X11341491Y-17192674D02*
X11322443Y-17183150D01*
X11322443Y-17183150D02*
X11284348Y-17183150D01*
X11284348Y-17183150D02*
X11265301Y-17192674D01*
X11351015Y-17306960D02*
X11331967Y-17316484D01*
X11331967Y-17316484D02*
X11284348Y-17316484D01*
X11284348Y-17316484D02*
X11265301Y-17306960D01*
X11265301Y-17306960D02*
X11255777Y-17287912D01*
X11255777Y-17287912D02*
X11255777Y-17268865D01*
X11255777Y-17268865D02*
X11265301Y-17249817D01*
X11265301Y-17249817D02*
X11284348Y-17240293D01*
X11284348Y-17240293D02*
X11331967Y-17240293D01*
X11331967Y-17240293D02*
X11351015Y-17230770D01*
X11446253Y-17183150D02*
X11446253Y-17383150D01*
X11446253Y-17192674D02*
X11465301Y-17183150D01*
X11465301Y-17183150D02*
X11503396Y-17183150D01*
X11503396Y-17183150D02*
X11522443Y-17192674D01*
X11522443Y-17192674D02*
X11531967Y-17202198D01*
X11531967Y-17202198D02*
X11541491Y-17221246D01*
X11541491Y-17221246D02*
X11541491Y-17278389D01*
X11541491Y-17278389D02*
X11531967Y-17297436D01*
X11531967Y-17297436D02*
X11522443Y-17306960D01*
X11522443Y-17306960D02*
X11503396Y-17316484D01*
X11503396Y-17316484D02*
X11465301Y-17316484D01*
X11465301Y-17316484D02*
X11446253Y-17306960D01*
X11627205Y-17297436D02*
X11636729Y-17306960D01*
X11636729Y-17306960D02*
X11627205Y-17316484D01*
X11627205Y-17316484D02*
X11617682Y-17306960D01*
X11617682Y-17306960D02*
X11627205Y-17297436D01*
X11627205Y-17297436D02*
X11627205Y-17316484D01*
X11627205Y-17192674D02*
X11636729Y-17202198D01*
X11636729Y-17202198D02*
X11627205Y-17211722D01*
X11627205Y-17211722D02*
X11617682Y-17202198D01*
X11617682Y-17202198D02*
X11627205Y-17192674D01*
X11627205Y-17192674D02*
X11627205Y-17211722D01*
X9795000Y-17545000D02*
X9995000Y-17745000D01*
X9995000Y-17545000D02*
X9795000Y-17745000D01*
X10236729Y-17536484D02*
X10360539Y-17536484D01*
X10360539Y-17536484D02*
X10293872Y-17612674D01*
X10293872Y-17612674D02*
X10322444Y-17612674D01*
X10322444Y-17612674D02*
X10341491Y-17622198D01*
X10341491Y-17622198D02*
X10351015Y-17631722D01*
X10351015Y-17631722D02*
X10360539Y-17650770D01*
X10360539Y-17650770D02*
X10360539Y-17698389D01*
X10360539Y-17698389D02*
X10351015Y-17717436D01*
X10351015Y-17717436D02*
X10341491Y-17726960D01*
X10341491Y-17726960D02*
X10322444Y-17736484D01*
X10322444Y-17736484D02*
X10265301Y-17736484D01*
X10265301Y-17736484D02*
X10246253Y-17726960D01*
X10246253Y-17726960D02*
X10236729Y-17717436D01*
X10446253Y-17717436D02*
X10455777Y-17726960D01*
X10455777Y-17726960D02*
X10446253Y-17736484D01*
X10446253Y-17736484D02*
X10436729Y-17726960D01*
X10436729Y-17726960D02*
X10446253Y-17717436D01*
X10446253Y-17717436D02*
X10446253Y-17736484D01*
X10531967Y-17555531D02*
X10541491Y-17546008D01*
X10541491Y-17546008D02*
X10560539Y-17536484D01*
X10560539Y-17536484D02*
X10608158Y-17536484D01*
X10608158Y-17536484D02*
X10627205Y-17546008D01*
X10627205Y-17546008D02*
X10636729Y-17555531D01*
X10636729Y-17555531D02*
X10646253Y-17574579D01*
X10646253Y-17574579D02*
X10646253Y-17593627D01*
X10646253Y-17593627D02*
X10636729Y-17622198D01*
X10636729Y-17622198D02*
X10522444Y-17736484D01*
X10522444Y-17736484D02*
X10646253Y-17736484D01*
X10770063Y-17536484D02*
X10789110Y-17536484D01*
X10789110Y-17536484D02*
X10808158Y-17546008D01*
X10808158Y-17546008D02*
X10817682Y-17555531D01*
X10817682Y-17555531D02*
X10827205Y-17574579D01*
X10827205Y-17574579D02*
X10836729Y-17612674D01*
X10836729Y-17612674D02*
X10836729Y-17660293D01*
X10836729Y-17660293D02*
X10827205Y-17698389D01*
X10827205Y-17698389D02*
X10817682Y-17717436D01*
X10817682Y-17717436D02*
X10808158Y-17726960D01*
X10808158Y-17726960D02*
X10789110Y-17736484D01*
X10789110Y-17736484D02*
X10770063Y-17736484D01*
X10770063Y-17736484D02*
X10751015Y-17726960D01*
X10751015Y-17726960D02*
X10741491Y-17717436D01*
X10741491Y-17717436D02*
X10731967Y-17698389D01*
X10731967Y-17698389D02*
X10722444Y-17660293D01*
X10722444Y-17660293D02*
X10722444Y-17612674D01*
X10722444Y-17612674D02*
X10731967Y-17574579D01*
X10731967Y-17574579D02*
X10741491Y-17555531D01*
X10741491Y-17555531D02*
X10751015Y-17546008D01*
X10751015Y-17546008D02*
X10770063Y-17536484D01*
X10960539Y-17536484D02*
X10979586Y-17536484D01*
X10979586Y-17536484D02*
X10998634Y-17546008D01*
X10998634Y-17546008D02*
X11008158Y-17555531D01*
X11008158Y-17555531D02*
X11017682Y-17574579D01*
X11017682Y-17574579D02*
X11027205Y-17612674D01*
X11027205Y-17612674D02*
X11027205Y-17660293D01*
X11027205Y-17660293D02*
X11017682Y-17698389D01*
X11017682Y-17698389D02*
X11008158Y-17717436D01*
X11008158Y-17717436D02*
X10998634Y-17726960D01*
X10998634Y-17726960D02*
X10979586Y-17736484D01*
X10979586Y-17736484D02*
X10960539Y-17736484D01*
X10960539Y-17736484D02*
X10941491Y-17726960D01*
X10941491Y-17726960D02*
X10931967Y-17717436D01*
X10931967Y-17717436D02*
X10922444Y-17698389D01*
X10922444Y-17698389D02*
X10912920Y-17660293D01*
X10912920Y-17660293D02*
X10912920Y-17612674D01*
X10912920Y-17612674D02*
X10922444Y-17574579D01*
X10922444Y-17574579D02*
X10931967Y-17555531D01*
X10931967Y-17555531D02*
X10941491Y-17546008D01*
X10941491Y-17546008D02*
X10960539Y-17536484D01*
X11112920Y-17736484D02*
X11112920Y-17603150D01*
X11112920Y-17622198D02*
X11122444Y-17612674D01*
X11122444Y-17612674D02*
X11141491Y-17603150D01*
X11141491Y-17603150D02*
X11170063Y-17603150D01*
X11170063Y-17603150D02*
X11189110Y-17612674D01*
X11189110Y-17612674D02*
X11198634Y-17631722D01*
X11198634Y-17631722D02*
X11198634Y-17736484D01*
X11198634Y-17631722D02*
X11208158Y-17612674D01*
X11208158Y-17612674D02*
X11227205Y-17603150D01*
X11227205Y-17603150D02*
X11255777Y-17603150D01*
X11255777Y-17603150D02*
X11274824Y-17612674D01*
X11274824Y-17612674D02*
X11284348Y-17631722D01*
X11284348Y-17631722D02*
X11284348Y-17736484D01*
X11379586Y-17736484D02*
X11379586Y-17603150D01*
X11379586Y-17622198D02*
X11389110Y-17612674D01*
X11389110Y-17612674D02*
X11408158Y-17603150D01*
X11408158Y-17603150D02*
X11436729Y-17603150D01*
X11436729Y-17603150D02*
X11455777Y-17612674D01*
X11455777Y-17612674D02*
X11465301Y-17631722D01*
X11465301Y-17631722D02*
X11465301Y-17736484D01*
X11465301Y-17631722D02*
X11474824Y-17612674D01*
X11474824Y-17612674D02*
X11493872Y-17603150D01*
X11493872Y-17603150D02*
X11522443Y-17603150D01*
X11522443Y-17603150D02*
X11541491Y-17612674D01*
X11541491Y-17612674D02*
X11551015Y-17631722D01*
X11551015Y-17631722D02*
X11551015Y-17736484D01*
X11941491Y-17526960D02*
X11770063Y-17784103D01*
X12198634Y-17536484D02*
X12217682Y-17536484D01*
X12217682Y-17536484D02*
X12236729Y-17546008D01*
X12236729Y-17546008D02*
X12246253Y-17555531D01*
X12246253Y-17555531D02*
X12255777Y-17574579D01*
X12255777Y-17574579D02*
X12265301Y-17612674D01*
X12265301Y-17612674D02*
X12265301Y-17660293D01*
X12265301Y-17660293D02*
X12255777Y-17698389D01*
X12255777Y-17698389D02*
X12246253Y-17717436D01*
X12246253Y-17717436D02*
X12236729Y-17726960D01*
X12236729Y-17726960D02*
X12217682Y-17736484D01*
X12217682Y-17736484D02*
X12198634Y-17736484D01*
X12198634Y-17736484D02*
X12179586Y-17726960D01*
X12179586Y-17726960D02*
X12170063Y-17717436D01*
X12170063Y-17717436D02*
X12160539Y-17698389D01*
X12160539Y-17698389D02*
X12151015Y-17660293D01*
X12151015Y-17660293D02*
X12151015Y-17612674D01*
X12151015Y-17612674D02*
X12160539Y-17574579D01*
X12160539Y-17574579D02*
X12170063Y-17555531D01*
X12170063Y-17555531D02*
X12179586Y-17546008D01*
X12179586Y-17546008D02*
X12198634Y-17536484D01*
X12351015Y-17717436D02*
X12360539Y-17726960D01*
X12360539Y-17726960D02*
X12351015Y-17736484D01*
X12351015Y-17736484D02*
X12341491Y-17726960D01*
X12341491Y-17726960D02*
X12351015Y-17717436D01*
X12351015Y-17717436D02*
X12351015Y-17736484D01*
X12551015Y-17736484D02*
X12436729Y-17736484D01*
X12493872Y-17736484D02*
X12493872Y-17536484D01*
X12493872Y-17536484D02*
X12474825Y-17565055D01*
X12474825Y-17565055D02*
X12455777Y-17584103D01*
X12455777Y-17584103D02*
X12436729Y-17593627D01*
X12627206Y-17555531D02*
X12636729Y-17546008D01*
X12636729Y-17546008D02*
X12655777Y-17536484D01*
X12655777Y-17536484D02*
X12703396Y-17536484D01*
X12703396Y-17536484D02*
X12722444Y-17546008D01*
X12722444Y-17546008D02*
X12731967Y-17555531D01*
X12731967Y-17555531D02*
X12741491Y-17574579D01*
X12741491Y-17574579D02*
X12741491Y-17593627D01*
X12741491Y-17593627D02*
X12731967Y-17622198D01*
X12731967Y-17622198D02*
X12617682Y-17736484D01*
X12617682Y-17736484D02*
X12741491Y-17736484D01*
X12912920Y-17536484D02*
X12874825Y-17536484D01*
X12874825Y-17536484D02*
X12855777Y-17546008D01*
X12855777Y-17546008D02*
X12846253Y-17555531D01*
X12846253Y-17555531D02*
X12827206Y-17584103D01*
X12827206Y-17584103D02*
X12817682Y-17622198D01*
X12817682Y-17622198D02*
X12817682Y-17698389D01*
X12817682Y-17698389D02*
X12827206Y-17717436D01*
X12827206Y-17717436D02*
X12836729Y-17726960D01*
X12836729Y-17726960D02*
X12855777Y-17736484D01*
X12855777Y-17736484D02*
X12893872Y-17736484D01*
X12893872Y-17736484D02*
X12912920Y-17726960D01*
X12912920Y-17726960D02*
X12922444Y-17717436D01*
X12922444Y-17717436D02*
X12931967Y-17698389D01*
X12931967Y-17698389D02*
X12931967Y-17650770D01*
X12931967Y-17650770D02*
X12922444Y-17631722D01*
X12922444Y-17631722D02*
X12912920Y-17622198D01*
X12912920Y-17622198D02*
X12893872Y-17612674D01*
X12893872Y-17612674D02*
X12855777Y-17612674D01*
X12855777Y-17612674D02*
X12836729Y-17622198D01*
X12836729Y-17622198D02*
X12827206Y-17631722D01*
X12827206Y-17631722D02*
X12817682Y-17650770D01*
X13055777Y-17536484D02*
X13074825Y-17536484D01*
X13074825Y-17536484D02*
X13093872Y-17546008D01*
X13093872Y-17546008D02*
X13103396Y-17555531D01*
X13103396Y-17555531D02*
X13112920Y-17574579D01*
X13112920Y-17574579D02*
X13122444Y-17612674D01*
X13122444Y-17612674D02*
X13122444Y-17660293D01*
X13122444Y-17660293D02*
X13112920Y-17698389D01*
X13112920Y-17698389D02*
X13103396Y-17717436D01*
X13103396Y-17717436D02*
X13093872Y-17726960D01*
X13093872Y-17726960D02*
X13074825Y-17736484D01*
X13074825Y-17736484D02*
X13055777Y-17736484D01*
X13055777Y-17736484D02*
X13036729Y-17726960D01*
X13036729Y-17726960D02*
X13027206Y-17717436D01*
X13027206Y-17717436D02*
X13017682Y-17698389D01*
X13017682Y-17698389D02*
X13008158Y-17660293D01*
X13008158Y-17660293D02*
X13008158Y-17612674D01*
X13008158Y-17612674D02*
X13017682Y-17574579D01*
X13017682Y-17574579D02*
X13027206Y-17555531D01*
X13027206Y-17555531D02*
X13036729Y-17546008D01*
X13036729Y-17546008D02*
X13055777Y-17536484D01*
X13198634Y-17536484D02*
X13198634Y-17574579D01*
X13274825Y-17536484D02*
X13274825Y-17574579D01*
X13570063Y-17812674D02*
X13560539Y-17803150D01*
X13560539Y-17803150D02*
X13541491Y-17774579D01*
X13541491Y-17774579D02*
X13531968Y-17755531D01*
X13531968Y-17755531D02*
X13522444Y-17726960D01*
X13522444Y-17726960D02*
X13512920Y-17679341D01*
X13512920Y-17679341D02*
X13512920Y-17641246D01*
X13512920Y-17641246D02*
X13522444Y-17593627D01*
X13522444Y-17593627D02*
X13531968Y-17565055D01*
X13531968Y-17565055D02*
X13541491Y-17546008D01*
X13541491Y-17546008D02*
X13560539Y-17517436D01*
X13560539Y-17517436D02*
X13570063Y-17507912D01*
X13731968Y-17603150D02*
X13731968Y-17736484D01*
X13684348Y-17526960D02*
X13636729Y-17669817D01*
X13636729Y-17669817D02*
X13760539Y-17669817D01*
X13989110Y-17736484D02*
X13989110Y-17536484D01*
X14074825Y-17736484D02*
X14074825Y-17631722D01*
X14074825Y-17631722D02*
X14065301Y-17612674D01*
X14065301Y-17612674D02*
X14046253Y-17603150D01*
X14046253Y-17603150D02*
X14017682Y-17603150D01*
X14017682Y-17603150D02*
X13998634Y-17612674D01*
X13998634Y-17612674D02*
X13989110Y-17622198D01*
X14198634Y-17736484D02*
X14179587Y-17726960D01*
X14179587Y-17726960D02*
X14170063Y-17717436D01*
X14170063Y-17717436D02*
X14160539Y-17698389D01*
X14160539Y-17698389D02*
X14160539Y-17641246D01*
X14160539Y-17641246D02*
X14170063Y-17622198D01*
X14170063Y-17622198D02*
X14179587Y-17612674D01*
X14179587Y-17612674D02*
X14198634Y-17603150D01*
X14198634Y-17603150D02*
X14227206Y-17603150D01*
X14227206Y-17603150D02*
X14246253Y-17612674D01*
X14246253Y-17612674D02*
X14255777Y-17622198D01*
X14255777Y-17622198D02*
X14265301Y-17641246D01*
X14265301Y-17641246D02*
X14265301Y-17698389D01*
X14265301Y-17698389D02*
X14255777Y-17717436D01*
X14255777Y-17717436D02*
X14246253Y-17726960D01*
X14246253Y-17726960D02*
X14227206Y-17736484D01*
X14227206Y-17736484D02*
X14198634Y-17736484D01*
X14379587Y-17736484D02*
X14360539Y-17726960D01*
X14360539Y-17726960D02*
X14351015Y-17707912D01*
X14351015Y-17707912D02*
X14351015Y-17536484D01*
X14531968Y-17726960D02*
X14512920Y-17736484D01*
X14512920Y-17736484D02*
X14474825Y-17736484D01*
X14474825Y-17736484D02*
X14455777Y-17726960D01*
X14455777Y-17726960D02*
X14446253Y-17707912D01*
X14446253Y-17707912D02*
X14446253Y-17631722D01*
X14446253Y-17631722D02*
X14455777Y-17612674D01*
X14455777Y-17612674D02*
X14474825Y-17603150D01*
X14474825Y-17603150D02*
X14512920Y-17603150D01*
X14512920Y-17603150D02*
X14531968Y-17612674D01*
X14531968Y-17612674D02*
X14541491Y-17631722D01*
X14541491Y-17631722D02*
X14541491Y-17650770D01*
X14541491Y-17650770D02*
X14446253Y-17669817D01*
X14617682Y-17726960D02*
X14636730Y-17736484D01*
X14636730Y-17736484D02*
X14674825Y-17736484D01*
X14674825Y-17736484D02*
X14693872Y-17726960D01*
X14693872Y-17726960D02*
X14703396Y-17707912D01*
X14703396Y-17707912D02*
X14703396Y-17698389D01*
X14703396Y-17698389D02*
X14693872Y-17679341D01*
X14693872Y-17679341D02*
X14674825Y-17669817D01*
X14674825Y-17669817D02*
X14646253Y-17669817D01*
X14646253Y-17669817D02*
X14627206Y-17660293D01*
X14627206Y-17660293D02*
X14617682Y-17641246D01*
X14617682Y-17641246D02*
X14617682Y-17631722D01*
X14617682Y-17631722D02*
X14627206Y-17612674D01*
X14627206Y-17612674D02*
X14646253Y-17603150D01*
X14646253Y-17603150D02*
X14674825Y-17603150D01*
X14674825Y-17603150D02*
X14693872Y-17612674D01*
X14770063Y-17812674D02*
X14779587Y-17803150D01*
X14779587Y-17803150D02*
X14798634Y-17774579D01*
X14798634Y-17774579D02*
X14808158Y-17755531D01*
X14808158Y-17755531D02*
X14817682Y-17726960D01*
X14817682Y-17726960D02*
X14827206Y-17679341D01*
X14827206Y-17679341D02*
X14827206Y-17641246D01*
X14827206Y-17641246D02*
X14817682Y-17593627D01*
X14817682Y-17593627D02*
X14808158Y-17565055D01*
X14808158Y-17565055D02*
X14798634Y-17546008D01*
X14798634Y-17546008D02*
X14779587Y-17517436D01*
X14779587Y-17517436D02*
X14770063Y-17507912D01*
X15131968Y-17812674D02*
X15122444Y-17803150D01*
X15122444Y-17803150D02*
X15103396Y-17774579D01*
X15103396Y-17774579D02*
X15093872Y-17755531D01*
X15093872Y-17755531D02*
X15084349Y-17726960D01*
X15084349Y-17726960D02*
X15074825Y-17679341D01*
X15074825Y-17679341D02*
X15074825Y-17641246D01*
X15074825Y-17641246D02*
X15084349Y-17593627D01*
X15084349Y-17593627D02*
X15093872Y-17565055D01*
X15093872Y-17565055D02*
X15103396Y-17546008D01*
X15103396Y-17546008D02*
X15122444Y-17517436D01*
X15122444Y-17517436D02*
X15131968Y-17507912D01*
X15208158Y-17603150D02*
X15208158Y-17736484D01*
X15208158Y-17622198D02*
X15217682Y-17612674D01*
X15217682Y-17612674D02*
X15236730Y-17603150D01*
X15236730Y-17603150D02*
X15265301Y-17603150D01*
X15265301Y-17603150D02*
X15284349Y-17612674D01*
X15284349Y-17612674D02*
X15293872Y-17631722D01*
X15293872Y-17631722D02*
X15293872Y-17736484D01*
X15417682Y-17736484D02*
X15398634Y-17726960D01*
X15398634Y-17726960D02*
X15389111Y-17717436D01*
X15389111Y-17717436D02*
X15379587Y-17698389D01*
X15379587Y-17698389D02*
X15379587Y-17641246D01*
X15379587Y-17641246D02*
X15389111Y-17622198D01*
X15389111Y-17622198D02*
X15398634Y-17612674D01*
X15398634Y-17612674D02*
X15417682Y-17603150D01*
X15417682Y-17603150D02*
X15446253Y-17603150D01*
X15446253Y-17603150D02*
X15465301Y-17612674D01*
X15465301Y-17612674D02*
X15474825Y-17622198D01*
X15474825Y-17622198D02*
X15484349Y-17641246D01*
X15484349Y-17641246D02*
X15484349Y-17698389D01*
X15484349Y-17698389D02*
X15474825Y-17717436D01*
X15474825Y-17717436D02*
X15465301Y-17726960D01*
X15465301Y-17726960D02*
X15446253Y-17736484D01*
X15446253Y-17736484D02*
X15417682Y-17736484D01*
X15541492Y-17603150D02*
X15617682Y-17603150D01*
X15570063Y-17536484D02*
X15570063Y-17707912D01*
X15570063Y-17707912D02*
X15579587Y-17726960D01*
X15579587Y-17726960D02*
X15598634Y-17736484D01*
X15598634Y-17736484D02*
X15617682Y-17736484D01*
X15836730Y-17603150D02*
X15836730Y-17803150D01*
X15836730Y-17612674D02*
X15855777Y-17603150D01*
X15855777Y-17603150D02*
X15893873Y-17603150D01*
X15893873Y-17603150D02*
X15912920Y-17612674D01*
X15912920Y-17612674D02*
X15922444Y-17622198D01*
X15922444Y-17622198D02*
X15931968Y-17641246D01*
X15931968Y-17641246D02*
X15931968Y-17698389D01*
X15931968Y-17698389D02*
X15922444Y-17717436D01*
X15922444Y-17717436D02*
X15912920Y-17726960D01*
X15912920Y-17726960D02*
X15893873Y-17736484D01*
X15893873Y-17736484D02*
X15855777Y-17736484D01*
X15855777Y-17736484D02*
X15836730Y-17726960D01*
X16046253Y-17736484D02*
X16027206Y-17726960D01*
X16027206Y-17726960D02*
X16017682Y-17707912D01*
X16017682Y-17707912D02*
X16017682Y-17536484D01*
X16208158Y-17736484D02*
X16208158Y-17631722D01*
X16208158Y-17631722D02*
X16198634Y-17612674D01*
X16198634Y-17612674D02*
X16179587Y-17603150D01*
X16179587Y-17603150D02*
X16141492Y-17603150D01*
X16141492Y-17603150D02*
X16122444Y-17612674D01*
X16208158Y-17726960D02*
X16189111Y-17736484D01*
X16189111Y-17736484D02*
X16141492Y-17736484D01*
X16141492Y-17736484D02*
X16122444Y-17726960D01*
X16122444Y-17726960D02*
X16112920Y-17707912D01*
X16112920Y-17707912D02*
X16112920Y-17688865D01*
X16112920Y-17688865D02*
X16122444Y-17669817D01*
X16122444Y-17669817D02*
X16141492Y-17660293D01*
X16141492Y-17660293D02*
X16189111Y-17660293D01*
X16189111Y-17660293D02*
X16208158Y-17650770D01*
X16274825Y-17603150D02*
X16351015Y-17603150D01*
X16303396Y-17536484D02*
X16303396Y-17707912D01*
X16303396Y-17707912D02*
X16312920Y-17726960D01*
X16312920Y-17726960D02*
X16331968Y-17736484D01*
X16331968Y-17736484D02*
X16351015Y-17736484D01*
X16493873Y-17726960D02*
X16474825Y-17736484D01*
X16474825Y-17736484D02*
X16436730Y-17736484D01*
X16436730Y-17736484D02*
X16417682Y-17726960D01*
X16417682Y-17726960D02*
X16408158Y-17707912D01*
X16408158Y-17707912D02*
X16408158Y-17631722D01*
X16408158Y-17631722D02*
X16417682Y-17612674D01*
X16417682Y-17612674D02*
X16436730Y-17603150D01*
X16436730Y-17603150D02*
X16474825Y-17603150D01*
X16474825Y-17603150D02*
X16493873Y-17612674D01*
X16493873Y-17612674D02*
X16503396Y-17631722D01*
X16503396Y-17631722D02*
X16503396Y-17650770D01*
X16503396Y-17650770D02*
X16408158Y-17669817D01*
X16674825Y-17736484D02*
X16674825Y-17536484D01*
X16674825Y-17726960D02*
X16655777Y-17736484D01*
X16655777Y-17736484D02*
X16617682Y-17736484D01*
X16617682Y-17736484D02*
X16598634Y-17726960D01*
X16598634Y-17726960D02*
X16589111Y-17717436D01*
X16589111Y-17717436D02*
X16579587Y-17698389D01*
X16579587Y-17698389D02*
X16579587Y-17641246D01*
X16579587Y-17641246D02*
X16589111Y-17622198D01*
X16589111Y-17622198D02*
X16598634Y-17612674D01*
X16598634Y-17612674D02*
X16617682Y-17603150D01*
X16617682Y-17603150D02*
X16655777Y-17603150D01*
X16655777Y-17603150D02*
X16674825Y-17612674D01*
X16751015Y-17812674D02*
X16760539Y-17803150D01*
X16760539Y-17803150D02*
X16779587Y-17774579D01*
X16779587Y-17774579D02*
X16789111Y-17755531D01*
X16789111Y-17755531D02*
X16798635Y-17726960D01*
X16798635Y-17726960D02*
X16808158Y-17679341D01*
X16808158Y-17679341D02*
X16808158Y-17641246D01*
X16808158Y-17641246D02*
X16798635Y-17593627D01*
X16798635Y-17593627D02*
X16789111Y-17565055D01*
X16789111Y-17565055D02*
X16779587Y-17546008D01*
X16779587Y-17546008D02*
X16760539Y-17517436D01*
X16760539Y-17517436D02*
X16751015Y-17507912D01*
M02*
